<svg width="250" height="62" viewBox="0 0 250 62" fill="none" xmlns="http://www.w3.org/2000/svg">
<path d="M46.6402 37.3114H34.9678L33.2353 41.0333H25.8281V39.9321L39.1523 11.0411H42.4081L55.7762 39.9321V41.0333H48.3727L46.6402 37.3114ZM40.7673 23.0549L37.4234 30.8365H44.192L40.7673 23.0549Z" fill="white"/>
<path d="M83.4405 25.6352C85.8521 26.8612 86.9936 29.0598 86.9936 31.6843C86.9532 36.8451 83.8223 41.0332 77.7732 41.0332H63.8984V11.4411H76.5472C77.7526 11.4226 78.9497 11.6443 80.0686 12.0933C81.1875 12.5423 82.2057 13.2096 83.064 14.0562C83.9223 14.9029 84.6034 15.912 85.0676 17.0246C85.5318 18.1373 85.7697 19.3312 85.7676 20.5368C85.7676 22.3133 84.8794 24.468 83.4405 25.6536V25.6352ZM71.2139 18.2097V22.9814H75.9856C78.9881 22.9814 78.9881 18.2097 75.9416 18.2097H71.2139ZM71.2139 29.2911V34.3234H77.263C80.3095 34.3234 80.2691 29.2911 77.2226 29.2911H71.2139Z" fill="white"/>
<path d="M96.1172 41.0332V11.4412H109.148C123.316 11.4815 123.316 33.4645 109.148 33.4645H103.69V41.0369L96.1172 41.0332ZM109.111 18.1913C107.334 18.1473 105.44 18.1913 103.697 18.1913V26.652H109.111C113.255 26.652 113.516 18.2317 109.111 18.1913Z" fill="white"/>
<path d="M131.635 41.0736H128.926V11.4228H136.667V25.9325L151.643 11.2943H154.392V41.0332H146.567V26.4831L131.635 41.0736Z" fill="white"/>
<path d="M168.775 44.3734H162.535V34.4629H165.538L175.69 11.0264H178.946L189.437 34.4629H192.527V44.3734H186.291V41.1176H168.775V44.3734ZM173.18 34.3932H181.556L177.283 23.6898L173.18 34.3932Z" fill="white"/>
<path d="M220.257 37.3112H208.585L206.849 41.0332H199.445V39.932L212.769 11.041H216.025L229.393 39.932V41.0332H221.99L220.257 37.3112ZM214.385 23.0548L211.041 30.8364H217.809L214.385 23.0548Z" fill="white"/>
<path d="M142.035 56.1875H137.678L136.753 58.1615H135.092V57.9573L139.503 48.5635H140.238L144.622 57.9573V58.1615H142.974L142.035 56.1875ZM139.87 51.0413L138.196 54.8533H141.531L139.87 51.0413ZM147.428 58.1615H145.835V48.6316H149.783C150.809 48.6316 151.626 48.9584 152.234 49.6118C152.842 50.2562 153.146 51.0504 153.146 51.9943C153.146 52.9201 152.837 53.7051 152.22 54.3495C151.612 54.9849 150.8 55.3025 149.783 55.3025H147.428V58.1615ZM147.401 53.9139H149.783C150.319 53.9139 150.759 53.7278 151.104 53.3557C151.449 52.9745 151.621 52.5071 151.621 51.9535C151.621 51.3907 151.449 50.9279 151.104 50.5648C150.768 50.1927 150.328 50.0066 149.783 50.0066H147.401V53.9139ZM156.554 50.0339H153.79V48.6316H160.87V50.0339H158.106V58.1615H156.554V50.0339ZM161.423 54.2679V52.9881H166.011V54.2679H161.423ZM169.657 48.6316V52.852C170.601 52.852 171.223 52.7748 171.522 52.6206C171.776 52.4844 171.981 52.2348 172.135 51.8718C172.289 51.4997 172.448 50.9959 172.611 50.3606C172.802 49.6708 173.129 49.1716 173.592 48.8631C174.054 48.5454 174.74 48.4728 175.647 48.6452V49.7344C175.157 49.6981 174.803 49.7525 174.585 49.8977C174.377 50.0339 174.204 50.3425 174.068 50.8235C173.723 52.0851 173.31 52.9337 172.829 53.3693L175.96 57.9301V58.1615H174.163L171.441 53.9956C171.168 54.0954 170.574 54.1453 169.657 54.1453V58.1615H168.064V48.6316H169.657ZM180.869 51.2047L177.888 58.1615H176.363V57.9437L180.529 48.5772H181.21L185.389 57.9437V58.1615H183.851L180.883 51.2047H180.869ZM192.503 56.1875H188.146L187.221 58.1615H185.56V57.9573L189.971 48.5635H190.706L195.09 57.9573V58.1615H193.442L192.503 56.1875ZM190.338 51.0413L188.664 54.8533H191.999L190.338 51.0413ZM195.452 53.4102C195.452 51.9217 195.92 50.7373 196.855 49.8569C197.798 48.9674 198.947 48.5227 200.299 48.5227C200.943 48.5227 201.551 48.6362 202.123 48.8631C202.704 49.09 203.221 49.4485 203.675 49.9386C204.129 50.4287 204.438 51.0186 204.601 51.7084H203.076C202.613 50.5648 201.683 49.984 200.285 49.9658C199.314 49.9658 198.529 50.288 197.93 50.9324C197.34 51.5677 197.045 52.3937 197.045 53.4102C197.045 54.3722 197.345 55.18 197.944 55.8335C198.552 56.487 199.332 56.8137 200.285 56.8137C200.957 56.8137 201.542 56.6503 202.042 56.3236C202.55 55.9969 202.908 55.5249 203.117 54.9077H204.655C204.429 56.0059 203.902 56.8409 203.076 57.4127C202.259 57.9754 201.329 58.2568 200.285 58.2568C198.933 58.2568 197.789 57.8211 196.855 56.9498C195.92 56.0695 195.452 54.8896 195.452 53.4102ZM208.125 50.0339H205.362V48.6316H212.441V50.0339H209.677V58.1615H208.125V50.0339ZM219.679 48.6316V50.0203H215.472V52.5389H219.447V53.9411H215.472V56.7184H219.76V58.1615H213.879V48.6316H219.679ZM223.329 58.1615H221.736V48.6316H225.684C226.71 48.6316 227.527 48.9584 228.135 49.6118C228.743 50.2562 229.047 51.0504 229.047 51.9943C229.047 52.9201 228.739 53.7051 228.121 54.3495C227.513 54.9849 226.701 55.3025 225.684 55.3025H223.329V58.1615ZM223.302 53.9139H225.684C226.22 53.9139 226.66 53.7278 227.005 53.3557C227.35 52.9745 227.522 52.5071 227.522 51.9535C227.522 51.3907 227.35 50.9279 227.005 50.5648C226.669 50.1927 226.229 50.0066 225.684 50.0066H223.302V53.9139Z" fill="#FF9015"/>
<path d="M248.99 11.4191C248.991 13.6791 248.321 15.8885 247.066 17.7678C245.81 19.6471 244.026 21.1117 241.938 21.9764C239.85 22.8411 237.552 23.067 235.336 22.6255C233.119 22.1839 231.084 21.0949 229.486 19.496C227.889 17.8972 226.802 15.8605 226.363 13.6436C225.923 11.4267 226.151 9.12935 227.018 7.04215C227.885 4.95495 229.351 3.17176 231.231 1.91821C233.112 0.664664 235.322 -0.00289532 237.582 9.43946e-06C239.082 9.43946e-06 240.566 0.295372 241.952 0.869237C243.337 1.4431 244.596 2.28423 245.657 3.34459C246.717 4.40496 247.558 5.66379 248.132 7.04922C248.706 8.43465 249.001 9.91955 249.001 11.4191" fill="#F29400"/>
<path d="M0 18.162V11.3934H22.8382V18.162H15.1851V41.0112H7.69717V18.162H0Z" fill="white"/>
</svg>
