<svg width="162" height="60" viewBox="0 0 162 60" fill="none" xmlns="http://www.w3.org/2000/svg">
<path d="M9.03465 47.3398C9.03465 47.8427 8.80998 48.1957 8.36063 48.399C8.02896 48.5488 7.54217 48.6237 6.90024 48.6237C6.63277 48.6237 6.3867 48.6183 6.16202 48.6076C5.93735 48.5969 5.72337 48.5862 5.5201 48.5755C5.32752 48.8323 5.14029 49.0944 4.95841 49.3619C4.77653 49.6187 4.63209 49.8754 4.52511 50.1322C4.81397 50.0573 5.10819 50.0038 5.40776 49.9717C5.70732 49.9289 6.06573 49.9075 6.48299 49.9075C7.07142 49.9075 7.53682 50.0787 7.87918 50.4211C8.29644 50.8383 8.50506 51.4963 8.50506 52.395C8.50506 53.5291 8.12525 54.5722 7.36564 55.5244C6.74511 56.3054 5.95875 56.942 5.00655 57.4341C4.20414 57.8514 3.53012 58.06 2.98448 58.06C2.27836 58.06 1.63108 57.7818 1.04264 57.2255C0.507704 56.7227 0.240234 56.268 0.240234 55.8614C0.240234 55.6795 0.411415 55.4014 0.753777 55.0269C1.10684 54.6417 1.36896 54.4492 1.54014 54.4492C1.70062 54.4492 1.94669 54.6792 2.27836 55.1392C2.61002 55.5886 3.08077 55.8133 3.6906 55.8133C4.20414 55.8133 4.76048 55.5511 5.35961 55.0269C6.04434 54.4278 6.3867 53.7858 6.3867 53.1011C6.3867 52.8016 6.32786 52.5394 6.21017 52.3148C6.06039 52.0259 5.83036 51.8815 5.5201 51.8815C5.10284 51.8815 4.61605 51.9617 4.05971 52.1222C3.51407 52.3148 2.97378 52.502 2.43884 52.6839C2.27836 52.6839 2.11253 52.5929 1.94134 52.411C1.77016 52.2292 1.68457 52.0526 1.68457 51.8815C1.68457 51.6782 1.84506 51.2877 2.16602 50.7099C2.29441 50.4746 2.47094 50.175 2.69561 49.8112C2.98448 49.3619 3.24125 48.966 3.46592 48.6237C3.63711 48.3669 3.88318 48.0138 4.20414 47.5645C4.45021 47.2007 4.85142 46.96 5.40776 46.8423C5.75012 46.7674 6.29041 46.73 7.02863 46.73C7.58496 46.73 8.05571 46.7728 8.44087 46.8584C8.83672 46.9333 9.03465 47.0937 9.03465 47.3398Z" fill="black"/>
<path d="M15.3959 53.0048C15.6527 52.5127 15.9094 52.0152 16.1662 51.5123C16.4551 51.0202 16.7386 50.7367 17.0168 50.6618C17.6587 50.4585 18.1776 50.3569 18.5734 50.3569C18.8088 50.3569 18.9532 50.4318 19.0067 50.5816C19.0602 50.7206 19.087 50.9721 19.087 51.3358C19.087 51.6033 19.0121 52.2131 18.8623 53.1653C18.7125 54.1175 18.6376 54.7808 18.6376 55.1553C18.6376 55.2944 18.6483 55.4549 18.6697 55.6367C18.6911 55.8079 18.8409 56.07 19.1191 56.4231C19.4079 56.7762 19.547 56.9901 19.5363 57.065C19.5042 57.2041 19.3437 57.4127 19.0549 57.6909C18.7232 58.0119 18.4504 58.1724 18.2364 58.1724C17.9903 58.1724 17.7015 58.0012 17.3698 57.6588C17.0382 57.3164 16.8456 57.0383 16.7921 56.8243C16.7493 56.5996 16.7225 56.3482 16.7118 56.07C16.7011 55.7919 16.6958 55.626 16.6958 55.5725C16.6958 54.7059 16.776 53.8875 16.9365 53.1172C16.53 53.9303 16.1929 54.5883 15.9255 55.0911C15.444 56.0112 15.0696 56.6585 14.8021 57.0329C14.5025 57.4502 14.1923 57.7444 13.8713 57.9156C13.5503 58.0868 13.2026 58.1724 12.8282 58.1724C12.5286 58.1724 12.2183 58.1028 11.8974 57.9637C11.5871 57.8139 11.432 57.6321 11.432 57.4181C11.432 57.1399 11.4908 56.7976 11.6085 56.391C11.7369 55.9737 11.876 55.7437 12.0258 55.7009C12.0472 55.6902 12.1862 55.7116 12.443 55.7651C12.7105 55.8079 12.9084 55.8293 13.0368 55.8293C13.1117 55.8293 13.1919 55.8186 13.2775 55.7972C13.5557 55.7223 13.9622 55.2944 14.4972 54.5134C14.9037 53.9142 15.2033 53.4114 15.3959 53.0048Z" fill="black"/>
<path d="M26.2911 51.063C26.2911 51.5444 26.259 51.8975 26.1948 52.1222C26.0878 52.518 25.8364 52.9727 25.4406 53.4863C25.1196 53.9463 24.697 54.3475 24.1728 54.6899C23.5308 55.043 22.8942 55.396 22.263 55.7491C22.2844 55.8775 22.3112 55.9791 22.3433 56.054C22.3861 56.1182 22.4502 56.1503 22.5358 56.1503C22.9959 56.1503 23.6004 56.0486 24.3493 55.8454C25.0982 55.6421 25.8471 55.4281 26.596 55.2034C26.7351 55.2034 26.8314 55.2516 26.8849 55.3479C26.9491 55.4442 26.9812 55.5779 26.9812 55.7491C26.9812 56.1235 26.3125 56.621 24.9752 57.2416C23.6378 57.8621 22.5144 58.1724 21.605 58.1724C21.1129 58.1724 20.701 57.8888 20.3693 57.3218C20.0912 56.8404 19.9521 56.3375 19.9521 55.8133C19.9521 54.3582 20.4817 52.9781 21.5408 51.6728C22.6107 50.3569 23.7181 49.6989 24.8628 49.6989C25.2908 49.6989 25.6331 49.8273 25.8899 50.0841C26.1574 50.3301 26.2911 50.6564 26.2911 51.063ZM24.2369 51.5605C24.0658 51.5605 23.9267 51.5926 23.8197 51.6568C23.7127 51.7103 23.5469 51.844 23.3222 52.058C23.1082 52.2827 22.8728 52.6571 22.6161 53.1814C22.477 53.4702 22.3112 53.8607 22.1186 54.3529C22.4716 54.171 22.8408 53.9249 23.2259 53.6147C23.4934 53.4007 23.7288 53.1867 23.932 52.9727C24.1781 52.716 24.3065 52.5822 24.3172 52.5715C24.4777 52.379 24.5579 52.165 24.5579 51.9296C24.5258 51.844 24.4991 51.7852 24.4777 51.7531C24.4028 51.6247 24.3225 51.5605 24.2369 51.5605Z" fill="black"/>
<path d="M37.7998 58.3168C37.3933 58.3168 37.0348 58.2205 36.7246 58.0279C36.425 57.8246 36.2003 57.5518 36.0506 57.2095C35.9864 57.049 35.9436 56.8724 35.9222 56.6799C35.9008 56.4873 35.8901 56.268 35.8901 56.0219C35.8901 55.8614 35.8954 55.6367 35.9061 55.3479C35.9168 55.0483 35.9222 54.845 35.9222 54.738C35.3551 55.3907 34.7881 56.0433 34.2211 56.6959C33.2796 57.6802 32.5681 58.1724 32.0866 58.1724C31.7871 58.1724 31.5678 58.044 31.4287 57.7872C31.3324 57.616 31.2842 57.4341 31.2842 57.2416L31.9743 54.3689C32.0064 54.2833 32.0599 54.0747 32.1348 53.743C32.2097 53.4007 32.2685 53.1867 32.3113 53.1011C32.2364 53.176 31.8459 53.7163 31.1398 54.722C30.4016 55.7705 29.765 56.5889 29.2301 57.1774C28.4491 58.0333 27.8285 58.4612 27.3685 58.4612C27.0689 58.4612 26.8496 58.3435 26.7105 58.1082C26.5821 57.8728 26.5179 57.6053 26.5179 57.3058C26.6249 56.8457 26.7159 56.4766 26.7907 56.1984C26.9512 55.5886 27.1545 54.8557 27.4006 53.9998C27.5932 53.1118 27.7911 52.2185 27.9944 51.3198C28.2725 50.3783 28.7326 49.9075 29.3745 49.9075C29.5778 49.9075 29.7169 49.961 29.7918 50.068C29.8773 50.1643 29.9201 50.3194 29.9201 50.5334C29.9201 50.619 29.9094 50.7367 29.888 50.8865C29.8773 51.0256 29.872 51.1111 29.872 51.1432C29.872 51.3358 29.7222 52.0205 29.4226 53.1974C29.3157 53.743 29.2087 54.2833 29.1017 54.8183C29.2194 54.8183 29.5938 54.4224 30.2251 53.6307C31.1452 52.4752 31.7496 51.737 32.0385 51.4161C32.766 50.6136 33.2956 50.2124 33.6273 50.2124C33.7664 50.2124 33.9322 50.3141 34.1248 50.5174C34.3601 50.7634 34.4778 51.0095 34.4778 51.2556C34.4457 51.5658 34.2853 52.3522 33.9964 53.6147C33.7824 54.5134 33.6647 55.0216 33.6433 55.1392C34.0713 54.6043 34.5046 54.064 34.9432 53.5184C35.6814 52.5983 36.3073 51.8601 36.8209 51.3037C37.5056 50.5548 37.9496 50.1803 38.1529 50.1803C38.3561 50.1803 38.522 50.2445 38.6504 50.3729C38.7894 50.4906 38.859 50.6725 38.859 50.9186C38.859 51.0897 38.7948 51.3305 38.6664 51.6407C38.3561 52.3896 38.185 52.8925 38.1529 53.1493C38.1208 53.3953 38.0887 53.7003 38.0566 54.064C38.0245 54.4278 38.0084 54.738 38.0084 54.9948C38.0084 55.2837 38.0352 55.5297 38.0887 55.733C38.1529 55.9363 38.3027 56.1449 38.538 56.3589C38.7734 56.5729 38.8911 56.7494 38.8911 56.8885C38.8911 57.1025 38.7788 57.3806 38.5541 57.723C38.2973 58.1189 38.0459 58.3168 37.7998 58.3168Z" fill="black"/>
<path d="M132.39 49.3462C132.39 49.9879 132.208 51.0477 131.845 52.5254C131.524 53.809 131.271 54.6787 131.085 55.1347C130.866 55.6498 130.651 56.1692 130.439 56.6927C130.017 57.6047 129.578 58.3182 129.122 58.8333C128.489 59.5511 127.826 59.91 127.134 59.91C126.636 59.91 126.104 59.644 125.538 59.112C124.921 58.5293 124.613 57.9256 124.613 57.3007C124.613 57.1825 124.765 56.9967 125.069 56.7434C125.247 56.5998 125.403 56.5154 125.538 56.49C125.631 56.4731 125.829 56.7814 126.133 57.4147C126.446 58.0565 126.851 58.3773 127.349 58.3773C127.729 58.3773 128.071 58.162 128.375 57.7313C128.603 57.402 128.839 56.8869 129.084 56.186C129.287 55.5696 129.49 54.949 129.692 54.3241L130.047 53.1968C129.498 53.9061 128.92 54.4381 128.312 54.7927C127.763 55.1136 127.222 55.2741 126.69 55.2741C126.336 55.2741 126.049 55.1052 125.829 54.7674C125.669 54.5225 125.589 54.303 125.589 54.1087C125.589 53.9399 125.69 53.5979 125.893 53.0828C126.104 52.5592 126.336 52.0948 126.589 51.6895C127.079 50.9295 127.797 50.2159 128.742 49.5488C129.604 48.9408 130.233 48.6368 130.629 48.6368C130.731 48.6368 130.819 48.7044 130.895 48.8395C130.98 48.9662 131.031 49.1055 131.047 49.2575C131.258 49.1562 131.419 49.0802 131.529 49.0295C131.748 48.9282 131.883 48.8775 131.934 48.8775C132.111 48.8775 132.221 48.8986 132.263 48.9408C132.348 49.0168 132.39 49.1519 132.39 49.3462ZM130.477 50.3088C129.988 50.3088 129.316 50.7395 128.464 51.6008C127.678 52.3946 127.286 52.897 127.286 53.1081C127.286 53.3868 127.374 53.5261 127.552 53.5261C128.041 53.5261 128.624 53.0912 129.3 52.2214C129.815 51.5628 130.207 50.9253 130.477 50.3088Z" fill="black"/>
<path d="M135.111 54.8054C134.503 55.1685 134.077 55.3965 133.832 55.4894C133.596 55.5823 133.27 55.6287 132.857 55.6287C132.722 55.6287 132.586 55.5612 132.451 55.4261C132.316 55.2909 132.249 55.1474 132.249 54.9954C132.249 54.7758 132.367 54.189 132.603 53.2348C132.84 52.2721 133.093 51.3432 133.363 50.4481C133.878 48.7086 134.22 47.5855 134.389 47.0789C134.845 45.7278 135.166 45.0522 135.352 45.0522C135.521 45.0522 135.711 45.0987 135.922 45.1916C136.133 45.2845 136.238 45.3858 136.238 45.4956C136.255 45.6391 135.977 46.568 135.402 48.2822C135.048 49.3377 134.816 50.0682 134.706 50.4735C134.529 51.1068 134.398 51.5586 134.313 51.8288C134.111 52.4874 133.912 53.1419 133.718 53.7921C134.022 53.657 134.33 53.5176 134.643 53.3741C135.352 53.0617 135.795 52.9054 135.972 52.9054C136.091 52.9054 136.213 52.9983 136.34 53.1841C136.475 53.3614 136.542 53.5134 136.542 53.6401C136.525 53.7836 136.298 54.0116 135.858 54.3241C135.656 54.4676 135.407 54.6281 135.111 54.8054Z" fill="black"/>
<path d="M144.4 49.5995C143.986 49.6924 143.551 49.8022 143.095 49.9288C143.011 49.9542 142.614 50.0724 141.905 50.2835C141.981 50.3933 142.061 50.4988 142.145 50.6001C142.205 50.7099 142.234 50.9295 142.234 51.2588C142.234 52.0526 142.019 52.7999 141.588 53.5008C141.25 54.0412 140.756 54.5901 140.106 55.1474C139.819 55.3838 139.545 55.5485 139.283 55.6414C139.021 55.7343 138.667 55.7807 138.219 55.7807C137.772 55.7807 137.396 55.6752 137.092 55.4641C136.695 55.1854 136.497 54.759 136.497 54.1847C136.497 53.5936 136.623 52.9561 136.877 52.2721C137.071 51.7401 137.29 51.2968 137.535 50.9421C138.101 50.1399 138.574 49.5826 138.954 49.2702C139.224 49.0422 139.473 48.9282 139.701 48.9282C139.819 48.9282 139.933 48.9788 140.043 49.0802C140.161 49.1731 140.22 49.2871 140.22 49.4222C140.22 49.6671 140.043 50.047 139.688 50.5621C139.334 51.0772 138.983 51.5797 138.637 52.0695C138.266 52.669 138.08 53.1545 138.08 53.5261C138.08 53.7119 138.135 53.8681 138.244 53.9948C138.354 54.1214 138.519 54.1847 138.738 54.1847C139.237 54.1847 139.684 53.8765 140.081 53.2601C140.444 52.6943 140.626 52.1201 140.626 51.5375C140.626 51.3939 140.596 51.2039 140.537 50.9675C140.402 50.427 140.334 50.0808 140.334 49.9288C140.334 49.5066 140.93 49.1604 142.12 48.8902C143.024 48.6875 143.813 48.5862 144.489 48.5862C144.657 48.5862 144.809 48.6157 144.945 48.6748C145.088 48.734 145.16 48.8057 145.16 48.8902C145.16 49.0675 145.071 49.2279 144.894 49.3715C144.75 49.4897 144.586 49.5657 144.4 49.5995Z" fill="black"/>
<path d="M144.084 53.5514C144.278 53.6528 144.49 53.7583 144.718 53.8681C144.946 53.9694 145.152 54.0201 145.338 54.0201C145.87 54.0201 146.322 53.8048 146.693 53.3741C147.065 52.9434 147.251 52.4241 147.251 51.8161C147.251 51.5712 147.213 51.3981 147.137 51.2968C147.061 51.1955 146.904 51.1448 146.668 51.1448C146.474 51.1448 146.242 51.2208 145.971 51.3728C145.71 51.5164 145.452 51.7148 145.199 51.9681C145.064 52.0948 144.882 52.3312 144.654 52.6774C144.46 52.973 144.27 53.2643 144.084 53.5514ZM143.02 53.9694C142.885 53.8174 142.818 53.6739 142.818 53.5388C142.944 53.1165 143.075 52.6901 143.21 52.2594C143.582 51.0772 143.869 50.1822 144.072 49.5742C144.435 48.5102 144.726 47.7333 144.946 47.2435C145.072 46.8129 145.182 46.492 145.275 46.2809C145.562 45.6391 145.874 45.3182 146.212 45.3182C146.381 45.3182 146.533 45.3816 146.668 45.5082C146.803 45.6349 146.871 45.7785 146.871 45.9389C146.871 45.9896 146.651 46.5933 146.212 47.7502C145.748 48.9662 145.41 49.8064 145.199 50.2708C145.596 49.933 145.993 49.6882 146.389 49.5362C146.786 49.3757 147.187 49.2955 147.593 49.2955C147.922 49.2955 148.209 49.4433 148.454 49.7388C148.775 50.1273 148.935 50.6761 148.935 51.3855C148.935 51.9006 148.821 52.4494 148.593 53.0321C148.289 53.8005 147.871 54.4043 147.339 54.8434C146.647 55.4092 145.794 55.6921 144.781 55.6921C144.325 55.6921 143.844 55.5612 143.337 55.2994C142.839 55.0376 142.59 54.8012 142.59 54.5901C142.59 54.5056 142.64 54.4001 142.742 54.2734C142.877 54.1299 142.97 54.0285 143.02 53.9694Z" fill="black"/>
<path d="M158.298 52.9561C158.298 53.2517 158.176 53.5219 157.931 53.7668C157.407 54.2565 156.669 54.7083 155.714 55.1221C154.929 55.4598 154.427 55.6287 154.207 55.6287C153.971 55.6287 153.777 55.5401 153.625 55.3627C153.473 55.177 153.397 54.9743 153.397 54.7547C153.397 54.5014 153.397 54.2396 153.397 53.9694C153.405 53.6992 153.439 53.4079 153.498 53.0954C152.822 53.6865 152.451 54.0116 152.383 54.0707C151.387 54.8983 150.631 55.3121 150.116 55.3121C149.804 55.3121 149.529 55.2023 149.293 54.9827C149.057 54.7632 148.938 54.531 148.938 54.2861C148.938 53.9314 149.238 53.2939 149.838 52.3734C150.437 51.453 151.1 50.6381 151.826 49.9288C152.67 49.1013 153.354 48.6875 153.878 48.6875C153.979 48.6875 154.097 48.7551 154.233 48.8902C154.368 49.0168 154.473 49.1562 154.549 49.3082C154.651 49.1562 154.722 49.0422 154.764 48.9662C154.857 48.8226 154.967 48.7508 155.094 48.7508C155.237 48.7508 155.41 48.8142 155.613 48.9408C155.824 49.0591 155.93 49.2026 155.93 49.3715C155.93 49.6671 155.854 50.085 155.702 50.6255C155.55 51.1659 155.398 51.7021 155.246 52.2341C155.178 52.4959 155.123 52.7408 155.081 52.9688C155.039 53.1883 155.018 53.3699 155.018 53.5134C155.018 53.6654 155.047 53.7414 155.106 53.7414C155.233 53.7414 155.647 53.5388 156.348 53.1334C157.057 52.7197 157.534 52.5128 157.779 52.5128C158.125 52.5128 158.298 52.6606 158.298 52.9561ZM152.966 51.7655C153 51.6979 153.017 51.605 153.017 51.4868C153.017 51.2757 152.953 51.1701 152.827 51.1701C152.497 51.1701 152.151 51.3812 151.788 51.8035C151.526 52.1075 151.163 52.6521 150.699 53.4374C151.417 53.1081 151.961 52.7999 152.333 52.5128C152.628 52.2848 152.839 52.0357 152.966 51.7655Z" fill="black"/>
<path d="M160.566 54.8054C159.958 55.1685 159.532 55.3965 159.287 55.4894C159.05 55.5823 158.725 55.6287 158.312 55.6287C158.176 55.6287 158.041 55.5612 157.906 55.4261C157.771 55.2909 157.704 55.1474 157.704 54.9954C157.704 54.7758 157.822 54.189 158.058 53.2348C158.295 52.2721 158.548 51.3432 158.818 50.4481C159.333 48.7086 159.675 47.5855 159.844 47.0789C160.3 45.7278 160.621 45.0522 160.807 45.0522C160.976 45.0522 161.166 45.0987 161.377 45.1916C161.588 45.2845 161.693 45.3858 161.693 45.4956C161.71 45.6391 161.432 46.568 160.857 48.2822C160.503 49.3377 160.271 50.0682 160.161 50.4735C159.983 51.1068 159.853 51.5586 159.768 51.8288C159.565 52.4874 159.367 53.1419 159.173 53.7921C159.477 53.657 159.785 53.5176 160.097 53.3741C160.807 53.0617 161.25 52.9054 161.427 52.9054C161.546 52.9054 161.668 52.9983 161.795 53.1841C161.93 53.3614 161.997 53.5134 161.997 53.6401C161.98 53.7836 161.752 54.0116 161.313 54.3241C161.111 54.4676 160.862 54.6281 160.566 54.8054Z" fill="black"/>
<path fill-rule="evenodd" clip-rule="evenodd" d="M72.4626 33.8279L66.4733 46.2927L57.3903 37.748C56.7353 36.7843 55.3671 36.6554 54.5444 37.4799L48.1655 45.5499L40.8252 33.0599C40.1099 32.2859 38.896 32.2625 38.1516 33.0085L32.88 36.1227L30.9448 34.1834C30.2201 33.4572 29.0451 33.4572 28.3204 34.1834L24.0408 38.472H1.73971C0.778894 38.472 0 39.2525 0 40.2153C0 41.1782 0.778894 41.9587 1.73971 41.9587H24.7134C25.2055 41.9587 25.6775 41.7628 26.0255 41.414L29.6326 37.7994L31.5679 39.7388C32.2926 40.465 33.4675 40.465 34.1922 39.7388L39.4188 36.6695L46.7591 49.1595C47.4744 49.9336 48.6883 49.9569 49.4327 49.2109L55.6183 41.3347L65.8121 51.4289C66.6206 52.6184 68.4132 52.4762 69.0249 51.1741L76.4364 31.8723C73.4898 32.3911 72.4626 33.8279 72.4626 33.8279Z" fill="black"/>
<path d="M103.945 40.3771L106.153 45.5531C106.61 46.8403 108.25 47.2109 109.214 46.2449L114.349 41.0991L119.532 46.2927C120.256 47.0189 121.431 47.0189 122.156 46.2927L131.804 36.6245L135.005 39.8324C135.353 40.1811 135.825 40.377 136.317 40.377L160.26 40.3771C161.221 40.3771 162 39.5965 162 38.6337C162 37.6709 161.221 36.8904 160.26 36.8904L136.99 36.8903L133.116 33.0085C132.391 32.2823 131.216 32.2823 130.492 33.0085L120.844 42.6767L115.661 37.4831C114.936 36.7569 113.762 36.7569 113.037 37.4831L108.571 41.9587L106.12 35.0307L103.945 40.3771Z" fill="black"/>
<path d="M74.6737 26.4156C74.7376 26.2787 74.8488 26.1696 74.9869 26.1084L82.1091 22.9522C82.4751 22.7899 83.0944 22.8898 83.1725 23.2825C83.1725 23.2825 83.2653 24.3624 83.4111 25.0391C83.5606 25.7328 83.9331 26.7796 83.9331 26.7796C83.9899 27.0655 83.5581 27.3689 83.292 27.4879L73.2997 31.9591C72.7716 32.1955 72.2335 31.649 72.4781 31.1246L74.6737 26.4156Z" fill="#F32023"/>
<path d="M77.7308 19.5961C77.7946 19.4592 77.9059 19.3501 78.044 19.2889L81.141 17.9164C81.5071 17.7542 82.0791 17.8586 82.1571 18.2513C82.1571 18.2513 82.4738 19.2609 82.6133 19.8838C82.7735 20.5996 82.7862 21.637 82.7862 21.637C82.843 21.9225 82.5907 22.3333 82.3252 22.4527L76.3598 25.1349C75.8315 25.3725 75.2923 24.8258 75.5371 24.3009L77.7308 19.5961Z" fill="#444E9A"/>
<path d="M80.1239 14.3244C80.3792 13.7769 80.9458 13.9697 81.0635 14.5622L81.5184 15.5211L81.7585 16.757C81.815 17.0413 81.6686 17.3271 81.4049 17.4474L79.4702 18.3302C78.9417 18.5714 78.3989 18.024 78.6444 17.4976L80.1239 14.3244Z" fill="#F2F2F2"/>
<path d="M43.8726 7.07785C43.8726 8.29777 43.2758 9.13791 42.0821 9.59825C41.2327 9.9205 39.8783 10.0816 38.0188 10.0816C36.848 10.0816 35.5166 10.1852 34.0244 10.3924C33.1521 10.5305 32.2798 10.6686 31.4074 10.8067C30.8794 12.556 30.3629 14.3053 29.8579 16.0546C30.1334 16.0546 31.1893 15.928 33.0258 15.6748C34.8853 15.3986 36.1364 15.2605 36.7792 15.2605C37.399 15.2605 37.904 15.3066 38.2943 15.3986C38.6845 15.4677 38.8797 15.8014 38.8797 16.3999C38.8797 17.9421 37.1465 19.0699 33.6801 19.7835C32.6241 20.0136 30.9827 20.2438 28.756 20.474L27.0687 25.3767C27.6656 25.2156 29.0774 24.9509 31.3041 24.5826C33.5309 24.1913 34.8623 23.9956 35.2985 23.9956C36.4922 23.9956 37.2842 24.0992 37.6745 24.3064C38.2254 24.6056 38.5009 25.2271 38.5009 26.1708C38.5009 27.2066 38.2254 27.9546 37.6745 28.415C37.2613 28.7602 36.7103 28.9329 36.0216 28.9329C35.7002 28.9329 35.4248 28.9214 35.1952 28.8983C34.9886 28.8523 34.8164 28.8063 34.6787 28.7602C33.3243 28.7602 31.6485 28.9559 29.6513 29.3472C27.6771 29.7385 25.7258 30.1413 23.7975 30.5556C23.2695 30.5556 22.8103 30.3599 22.4201 29.9686C22.0528 29.6004 21.8691 29.2091 21.8691 28.7948C21.9151 28.4725 22.6037 26.0672 23.9352 21.5788C24.8764 18.4254 25.4503 16.4689 25.6569 15.7094C25.8865 14.9498 26.1505 14.2017 26.4489 13.4652C26.7703 12.7056 27.1376 11.9575 27.5508 11.221C27.0458 11.221 26.644 11.1289 26.3456 10.9448C25.9094 10.6916 25.7373 10.3118 25.8291 9.80541C26.0127 8.81566 27.3671 7.96402 29.8923 7.25048C32.4175 6.53694 35.5281 6.18017 39.224 6.18017C40.0963 6.18017 40.9802 6.18017 41.8755 6.18017C43.2069 6.22621 43.8726 6.52543 43.8726 7.07785Z" fill="black"/>
<path d="M47.1584 14.1557C48.7883 12.6135 50.1772 11.221 51.325 9.97804C53.0467 8.13665 53.9305 7.06634 53.9764 6.76711C54.0223 6.44487 54.0453 6.16866 54.0453 5.93849C54.0453 5.59323 53.919 5.4206 53.6665 5.4206C52.7482 5.4206 51.5545 6.57147 50.0853 8.87321C49.5344 9.74787 48.5587 11.5087 47.1584 14.1557ZM52.0481 15.6058C52.7138 15.6058 53.2877 15.8935 53.7698 16.4689C54.2748 17.0214 54.5274 17.7694 54.5274 18.7131C54.5274 20.7847 53.9994 22.6261 52.9434 24.2373C52.2317 25.3422 50.9806 26.6541 49.19 28.1733C48.4325 28.7948 47.7323 29.2206 47.0896 29.4508C46.4697 29.6809 45.563 29.796 44.3692 29.796C43.2444 29.796 42.2802 29.5543 41.4768 29.071C40.4437 28.4495 39.9272 27.5633 39.9272 26.4125C39.9272 24.1337 40.6274 21.0954 42.0277 17.2976C43.451 13.4767 45.2875 9.77088 47.5372 6.18017C48.7309 4.29274 50.1542 2.79661 51.807 1.69178C53.4599 0.563926 55.1357 0 56.8344 0C58.0282 0 58.8431 0.391295 59.2793 1.17389C59.5777 1.7263 59.7269 2.57795 59.7269 3.72882C59.7269 4.7646 58.6939 6.53694 56.6278 9.04584C55.0668 10.9333 52.9319 13.235 50.2231 15.9511C48.4325 17.7004 46.6534 19.4497 44.8858 21.199C44.8398 21.3832 44.6447 21.8665 44.3004 22.6491C44.0708 23.2015 43.956 23.6504 43.956 23.9956C43.956 24.456 44.0938 24.8588 44.3692 25.204C44.6677 25.5263 45.0924 25.6874 45.6433 25.6874C46.9518 25.6874 48.0881 24.9854 49.0523 23.5813C49.9246 22.2923 50.3608 20.9113 50.3608 19.4382C50.3608 19.0239 50.3149 18.6786 50.2231 18.4024C49.9935 17.7119 49.8787 17.2861 49.8787 17.1249C49.8787 16.6416 50.0968 16.2733 50.533 16.0201C50.9921 15.7439 51.4971 15.6058 52.0481 15.6058Z" fill="black"/>
<path d="M72.7111 17.85C72.7111 20.1057 71.6206 22.6491 69.4398 25.4803C67.1442 28.4725 64.9634 29.9686 62.8973 29.9686C62.4611 29.9686 61.9446 29.8421 61.3478 29.5889C60.7738 29.3357 60.2344 29.0364 59.7293 28.6912C59.4998 29.5198 59.2358 30.6477 58.9374 32.0747C58.6619 33.5248 58.4897 34.5491 58.4208 35.1476C58.352 35.746 58.2716 36.6092 58.1798 37.737C58.088 38.8879 58.0076 39.728 57.9388 40.2574C57.8929 40.8098 57.7207 41.2126 57.4223 41.4658C57.1238 41.719 56.527 41.8456 55.6317 41.8456C54.8052 41.8456 54.2428 41.5464 53.9444 40.9479C53.7378 40.5106 53.6345 39.8316 53.6345 38.9109C53.6345 38.1283 54.128 35.7345 55.1152 31.7295C56.5843 25.745 57.3763 22.511 57.4911 22.0276C57.7436 20.8768 58.088 19.5303 58.5241 17.9881C58.9603 16.4459 59.3735 15.0764 59.7638 13.8795C60.0622 12.9818 60.4869 12.3949 61.0378 12.1187C61.3822 11.9575 61.9217 11.877 62.6563 11.877C63.1383 11.877 63.4597 11.9806 63.6204 12.1877C63.7811 12.3949 63.8615 12.7171 63.8615 13.1544C63.8615 13.5918 63.8041 14.0751 63.6893 14.6045C64.6305 13.7989 65.4225 13.189 66.0653 12.7747C67.1901 12.0611 68.1198 11.7043 68.8544 11.7043C70.2548 11.7043 71.2419 12.1417 71.8158 13.0163C72.4126 13.891 72.7111 15.5022 72.7111 17.85ZM68.2002 18.4024C68.2002 17.4587 68.1657 16.8602 68.0969 16.607C67.9591 16.1467 67.6722 15.9165 67.236 15.9165C65.8586 15.9165 64.7338 16.5035 63.8615 17.6774C63.3105 18.4139 62.6448 19.7604 61.8643 21.7169C61.6118 22.3154 61.3363 23.0634 61.0378 23.9611C60.7624 24.8358 60.5787 25.4342 60.4869 25.7565C60.6017 25.5263 60.7739 25.3306 61.0034 25.1695C61.2559 24.9854 61.5199 24.8933 61.7954 24.8933C62.025 24.9163 62.289 25.0774 62.5874 25.3767C62.8858 25.6759 63.2302 25.8255 63.6204 25.8255C64.5616 25.8255 65.5602 24.9048 66.6162 23.0634C67.6722 21.199 68.2002 19.6453 68.2002 18.4024Z" fill="black"/>
<path d="M96.9547 25.3767C96.3578 25.3076 95.9676 25.135 95.7839 24.8588C95.6003 24.5596 95.5084 24.1107 95.5084 23.5123C95.5084 22.8217 95.5888 22.3154 95.7495 21.9931C95.9102 21.6709 96.266 21.4407 96.8169 21.3026C100.398 20.3589 102.189 19.139 102.189 17.6428C102.189 17.1134 102.085 16.6416 101.879 16.2273C101.58 15.6288 101.144 15.3296 100.57 15.3296C99.5602 15.3296 98.6305 15.5943 97.7811 16.1237C96.9088 16.7221 96.0364 17.3091 95.1641 17.8845C94.8197 17.8845 94.5672 17.804 94.4065 17.6428C94.177 17.4127 94.0622 17.0444 94.0622 16.538C94.0622 15.1339 94.8197 13.891 96.3348 12.8092C97.85 11.7274 99.5372 11.1865 101.397 11.1865C103.187 11.1865 104.576 11.7964 105.563 13.0163C106.39 14.0521 106.803 15.249 106.803 16.607C106.803 18.6556 105.942 20.2783 104.22 21.4752C103.027 22.3039 101.523 22.8678 99.7094 23.167C101.753 23.7194 103.176 24.5941 103.979 25.791C104.668 26.8268 105.012 28.1848 105.012 29.8651C105.012 33.4558 103.715 36.8048 101.121 39.9122C98.5272 43.0195 95.7839 44.5732 92.8914 44.5732C91.2156 44.5732 89.6776 43.7791 88.2772 42.1909C86.8769 40.6027 86.1767 38.8879 86.1767 37.0465C86.1767 36.7703 86.5326 36.2754 87.2442 35.5619C87.9329 34.8714 88.5183 34.5261 89.0004 34.5261C89.4365 34.5261 90.0334 35.5158 90.7909 37.4953C91.5485 39.4748 92.5012 40.4646 93.649 40.4646C94.177 40.4646 94.969 40.0848 96.0249 39.3252C97.3564 38.3585 98.4239 37.1961 99.2273 35.8381C100.283 34.0427 100.811 32.0517 100.811 29.8651C100.811 28.2999 100.433 27.1605 99.675 26.447C99.1011 25.8946 98.1943 25.5378 96.9547 25.3767Z" fill="black"/>
<path d="M125.729 27.5173C125.729 27.9776 125.384 28.5416 124.696 29.2091C124.007 29.8766 123.399 30.2103 122.871 30.2103C122.182 30.2103 121.551 29.9917 120.977 29.5543C120.426 29.117 119.967 28.5761 119.599 27.9316C119.255 27.2641 119.003 26.6311 118.842 26.0327C118.681 25.4342 118.555 24.6171 118.463 23.5813C116.558 25.5838 115.594 26.5966 115.571 26.6196C114.423 27.7245 113.344 28.5646 112.334 29.14C111.071 29.8536 109.809 30.2103 108.546 30.2103C108.018 30.2103 107.548 30.0262 107.134 29.6579C106.744 29.2666 106.572 28.8293 106.618 28.3459C106.618 27.5633 106.962 26.0212 107.651 23.7194C108.156 22.0161 108.466 20.9688 108.581 20.5776C109.384 17.9766 110.176 16.0201 110.956 14.7081C111.944 13.0739 113.023 12.2568 114.193 12.2568C114.492 12.2568 114.767 12.3949 115.02 12.6711C115.272 12.9473 115.399 13.189 115.399 13.3961C115.33 13.9946 115.123 14.7081 114.779 15.5367C114.434 16.3424 114.101 17.1019 113.78 17.8155C113.482 18.506 113.126 19.4267 112.713 20.5776C112.299 21.7284 112.07 22.511 112.024 22.9253V23.4432C112.024 23.9036 112.242 24.1337 112.678 24.1337C113.344 24.1337 114.526 23.2706 116.225 21.5443C117.12 20.6006 118.027 19.6569 118.945 18.7131C119.657 16.5725 120.518 15.0188 121.528 14.0521C122.262 13.3386 123.031 12.9818 123.835 12.9818C124.271 12.9818 124.592 13.1314 124.799 13.4306C125.006 13.7299 125.109 14.1212 125.109 14.6045C125.109 14.9728 124.673 16.3769 123.8 18.8167C123.364 20.0366 123.146 21.0494 123.146 21.855C123.123 22.1312 123.112 22.3154 123.112 22.4074C123.112 23.2821 123.387 24.1683 123.938 25.0659C124.535 25.8946 125.132 26.7117 125.729 27.5173Z" fill="black"/>
<path d="M130.356 16.8833C130.563 15.9395 131.332 15.0304 132.663 14.1557C133.765 13.4422 134.913 12.9243 136.107 12.602C137.094 12.3028 137.955 12.1071 138.689 12.0151C139.447 11.9 140.193 11.8424 140.927 11.8424C141.295 11.8424 141.674 11.8655 142.064 11.9115C142.477 11.9345 142.913 11.9575 143.372 11.9806C143.717 11.9806 144.015 12.1992 144.268 12.6365C144.52 13.0509 144.612 13.4652 144.543 13.8795C144.52 14.2017 144.394 14.4779 144.164 14.7081C143.935 14.9153 143.682 15.0649 143.407 15.157C143.039 16.3308 142.638 17.8845 142.202 19.818C141.788 21.7514 141.547 23.0059 141.478 23.5813C141.433 24.1568 141.41 24.4905 141.41 24.5826C141.41 24.6746 141.41 24.7437 141.41 24.7897C141.41 25.2501 141.547 25.7104 141.823 26.1708C142.121 26.6311 142.27 27.08 142.27 27.5173C142.27 27.8165 141.788 28.2884 140.824 28.9329C139.86 29.5543 139.08 29.8651 138.483 29.8651C137.909 29.8651 137.496 29.5428 137.243 28.8983C136.991 28.2539 136.864 27.5173 136.864 26.6887C136.864 25.768 137.036 24.6171 137.381 23.2361C136.692 24.0877 135.889 24.9969 134.97 25.9636C134.19 26.7922 133.49 27.4828 132.87 28.0352C132.066 28.7257 131.378 29.2091 130.804 29.4853C130.253 29.7385 129.587 29.8651 128.807 29.8651C128.072 29.8651 127.246 29.5428 126.327 28.8983C125.432 28.2539 125.042 27.6899 125.157 27.2066C125.294 26.6311 125.593 26.0212 126.052 25.3767C126.534 24.7092 126.947 24.3754 127.292 24.3754C127.498 24.3754 127.797 24.4675 128.187 24.6516C129.059 25.0659 129.61 25.2731 129.84 25.2731C130.368 25.2731 131.022 24.9854 131.802 24.4099C132.399 23.9726 133.076 23.3627 133.834 22.5801C133.076 22.442 132.342 22.0276 131.63 21.3371C130.689 20.4164 130.218 19.3231 130.218 18.0571C130.218 17.873 130.23 17.6658 130.253 17.4357C130.299 17.2055 130.333 17.0214 130.356 16.8833ZM139.688 15.3986C139.504 15.3986 139.229 15.3756 138.861 15.3296C138.494 15.2605 138.253 15.226 138.138 15.226C137.932 15.226 137.679 15.249 137.381 15.2951C137.082 15.3411 136.508 15.6173 135.659 16.1237C134.833 16.6301 134.385 17.0789 134.316 17.4702C134.247 17.8615 134.213 18.1722 134.213 18.4024C134.213 18.7246 134.282 18.9548 134.419 19.0929C134.649 19.231 134.821 19.3461 134.936 19.4382C135.28 19.7144 135.854 19.8525 136.658 19.8525C136.91 19.8525 137.197 19.841 137.518 19.818C137.84 19.7719 138.092 19.7374 138.276 19.7144L139.688 15.3986Z" fill="black"/>
<path d="M89.7277 20.5804C90.4798 20.0057 90.7504 19.269 90.5395 18.3702C90.486 17.9845 90.2652 17.7519 89.877 17.6723C89.4888 17.5926 88.997 17.6227 88.4015 17.7623L86.9684 18.2692C86.9704 18.0411 86.9271 17.7384 86.8385 17.3609C86.7753 17.0913 86.6517 16.722 86.4678 16.2531C86.2839 15.7842 86.154 15.3879 86.0781 15.0644L85.8504 14.0937C85.6312 13.159 85.3855 12.5054 85.1134 12.133C84.7291 11.5974 84.1604 11.4178 83.4073 11.5945C82.8294 11.73 82.3047 12.2893 81.8332 13.2723L82.904 17.6011C83.0675 17.9041 83.2254 18.3412 83.3779 18.9123C83.5261 19.4654 83.6409 19.8367 83.7223 20.0262L84.3908 23.1124C84.6227 24.1011 84.7969 25.1981 84.9134 26.4035C85.1343 28.6843 85.249 29.8427 85.2574 29.8786C85.4134 30.5437 85.5886 31.0147 85.7828 31.2915C86.1195 31.7815 86.6205 31.9484 87.286 31.7923C88.4068 31.5294 88.4207 31.0151 88.8672 29.3742C89.3138 27.7334 88.77 26.1946 88.3516 24.4022C88.1032 23.338 87.7916 21.6604 87.7916 21.6604L89.7277 20.5804Z" fill="black"/>
</svg>
