<svg width="786" height="1021" viewBox="0 0 786 1021" fill="none" xmlns="http://www.w3.org/2000/svg">
<g clip-path="url(#clip0)">
<path d="M407.419 359.139L462.988 422.779L466.307 479.657L407.419 359.139Z" fill="#C37746"/>
<path d="M462.988 422.779L522.705 479.657L614.769 574.456L512.751 509.755L462.988 422.779Z" fill="#BA7345"/>
<path d="M614.769 574.456L674.485 673.099L590.714 629.612L538.878 638.096L614.769 574.456Z" fill="#BA7345"/>
<path d="M538.879 638.096L512.751 509.755L614.769 574.456L538.879 638.096Z" fill="#E7A374"/>
<path d="M512.751 509.755L480.405 532.028L466.307 479.657L462.988 422.779L512.751 509.755Z" fill="#DC9964"/>
<path d="M480.405 532.027L457.182 633.853L538.879 638.096L512.751 509.755L480.405 532.027Z" fill="#C79560"/>
<path d="M466.307 479.657L436.86 560.668L443.912 603.094L480.405 532.028L466.307 479.657Z" fill="#F5B288"/>
<path d="M480.405 532.028L443.912 603.094L416.542 663.552V717.647L457.182 633.853L480.405 532.028Z" fill="#BA7345"/>
<path d="M674.485 673.099L717.613 767.498L722.591 850.231L703.515 770.681L674.485 673.099Z" fill="#BA7345"/>
<path d="M722.591 850.231L707.662 904.326L652.09 936.146L570.81 915.992L652.921 903.265L722.591 850.231Z" fill="#A0713B"/>
<path d="M538.879 638.096L466.307 699.614L436.86 807.805L501.969 731.434L538.879 638.096Z" fill="#F5B288"/>
<path d="M501.968 731.434L626.379 748.405L674.485 673.099L590.714 629.612L538.878 638.096L501.968 731.434Z" fill="#E7A374"/>
<path d="M626.379 748.405L646.701 789.773L722.591 850.231L703.515 770.681L674.485 673.099L626.379 748.405Z" fill="#C79560"/>
<path d="M646.701 789.773L538.878 859.248L462.365 818.437L501.969 731.435L626.379 748.4L646.701 789.773Z" fill="#BA7345"/>
<path d="M652.09 936.146L552.976 938.267L457.182 912.279L570.81 915.992L652.09 936.146Z" fill="#A36F3D"/>
<path d="M538.879 859.248L532.658 890.537L722.591 850.231L646.701 789.773L538.879 859.248Z" fill="#E7A374"/>
<path d="M466.307 699.615L416.541 803.031L436.86 807.805L466.307 699.615Z" fill="#E7A374"/>
<path d="M416.542 803.031V863.489L424.407 876.225C428.56 853.423 432.711 830.622 436.86 807.82L416.542 803.031Z" fill="#BA7345"/>
<path d="M466.307 699.615L457.182 633.853L538.879 638.096L466.307 699.615Z" fill="#A36F3D"/>
<path d="M416.541 717.646L404.514 741.513L402.027 803.031L466.307 699.615L457.181 633.853L416.541 717.646Z" fill="#945F2D"/>
<path d="M466.307 699.615L402.027 803.031L386.269 882.051V905.917L416.541 863.489V803.031L466.307 699.615Z" fill="#655852"/>
<path d="M407.419 359.139L420.688 521.068L436.86 560.668L466.307 479.657L407.419 359.139Z" fill="#BA7345"/>
<path d="M286.324 745.226L224.396 703.505L153.069 591.781L283.562 573.926L286.324 745.226Z" fill="#D4CBC6"/>
<path d="M153.069 591.781L185.137 479.657L283.562 573.926L153.069 591.781Z" fill="#DDD7D7"/>
<path d="M283.562 573.926L304.572 479.657L228.925 521.596L283.562 573.926Z" fill="#C5BAB6"/>
<path d="M170.159 532.028L114.917 509.755L153.069 591.781L170.159 532.028Z" fill="#CCBEB3"/>
<path d="M224.396 703.504H285.652C286.747 723.245 287.843 742.987 288.939 762.73L224.396 703.504Z" fill="#C5BAB6"/>
<path d="M283.562 573.926L224.396 703.505L286.05 728.055C285.217 676.68 284.388 625.304 283.562 573.926Z" fill="#C4B1A3"/>
<path d="M185.137 479.657L255.36 429.145C271.385 396.26 287.416 363.376 303.454 330.493C303.827 380.214 304.2 429.936 304.572 479.657L228.925 521.596L185.137 479.657Z" fill="#C4B1A3"/>
<path d="M185.137 479.657L133.162 443.287L114.917 509.756L170.159 532.028L185.137 479.657Z" fill="#C4B1A3"/>
<path d="M114.917 509.755C108.186 487.025 101.458 464.296 94.7315 441.568C94.4303 405.152 94.1301 368.738 93.8308 332.325L133.162 443.286L114.917 509.755Z" fill="#99887E"/>
<path d="M303.454 330.494L332.722 245.242C334.396 285.329 336.072 325.415 337.75 365.502L304.572 479.657C304.198 429.936 303.825 380.215 303.454 330.494Z" fill="#E8A37A"/>
<path d="M337.749 362.675L371.476 332.27L332.218 254.485L337.749 362.675Z" fill="#DC9964"/>
<path d="M371.477 332.27L391.384 371.867L407.419 359.139L402.027 339.34L391.384 324.49L371.477 332.27Z" fill="#C37746"/>
<path d="M391.384 371.867L351.847 484.298L304.573 479.657L337.75 362.676L371.477 332.27L391.384 371.867Z" fill="#C79560"/>
<path d="M351.847 484.298L308.444 603.094C307.854 648.825 307.261 694.555 306.666 740.284C333.2 664.621 359.735 588.957 386.272 513.292L389.458 446.823L351.847 484.298Z" fill="#E8A37A"/>
<path d="M389.447 446.823L391.384 371.867L351.847 484.298L389.447 446.823Z" fill="#BA7345"/>
<path d="M386.269 513.292L420.689 521.068L391.384 371.867L386.269 513.292Z" fill="#DC9964"/>
<path d="M391.384 371.867L407.419 359.139L420.689 521.068L391.384 371.867Z" fill="#C79560"/>
<path d="M308.441 603.094L283.561 573.926L304.572 479.657L351.847 484.298L308.441 603.094Z" fill="#BA7345"/>
<path d="M308.441 603.094L286.324 745.226L283.561 573.926L308.441 603.094Z" fill="#655852"/>
<path d="M286.325 745.211C287.933 764.148 289.539 783.094 291.144 802.049C295.621 772.495 300.097 742.943 304.572 713.391L308.444 603.094L286.325 745.211Z" fill="#655852"/>
<path d="M334.94 654.737L300.478 718.855C303.134 680.266 305.791 641.679 308.447 603.094L334.94 654.737Z" fill="#DC9964"/>
<path d="M308.444 724.365L317.683 796.489L290.469 856.95L291.144 802.06L308.444 724.365Z" fill="#C4B1A3"/>
<path d="M312.867 789.773L404.514 741.513L416.542 663.543L353.475 598.662L306.663 740.284L312.867 789.773Z" fill="#C79560"/>
<path d="M404.514 741.513L416.542 663.551V717.646L404.514 741.513Z" fill="#655852"/>
<path d="M386.269 513.292L416.541 663.552L443.912 603.094L436.86 560.668L420.688 521.069L386.269 513.292Z" fill="#A0713B"/>
<path d="M386.269 513.292L353.475 598.671L416.542 663.552L386.269 513.292Z" fill="#DC9964"/>
<path d="M402.359 762.922L399.872 824.44L384.114 903.462L351.32 852.196L402.359 762.922Z" fill="#A0713B"/>
<path d="M351.32 852.196L283.498 871.643L310.712 811.182L402.359 762.922L351.32 852.196Z" fill="#DC9964"/>
<path d="M384.115 903.462L379.275 957.554L335.595 911.946L351.32 852.196L384.115 903.462Z" fill="#945F2D"/>
<path d="M335.594 911.946L290.254 903.462L242.701 918.665L283.498 871.642L351.32 852.196L335.594 911.946Z" fill="#E8A37A"/>
<path d="M381.43 936.146L378.994 953.824L345.085 956.653L381.43 936.146Z" fill="#C4B1A3"/>
<path d="M342.93 978.061L321.219 971.699L335.594 942.705L364.329 965.989L342.93 978.061Z" fill="#DDD7D7"/>
<path d="M321.218 971.699L295.229 979.241L335.594 942.705L321.218 971.699Z" fill="#C4B1A3"/>
<path d="M335.594 942.705L297.011 950.662L289.562 946.685V978.061L295.229 979.241L335.594 942.705Z" fill="#DDD7D7"/>
<path d="M290.463 946.931L274.703 982.731L290.463 978.311V946.931Z" fill="#C4B1A3"/>
<path d="M289.562 946.685L263.437 948.714L257.164 982.977L276.808 981.635L289.562 946.685Z" fill="#DDD7D7"/>
<path d="M263.654 948.859L247.066 976.436L257.384 983.12C259.475 971.699 261.565 960.279 263.654 948.859Z" fill="#C4B1A3"/>
<path d="M263.437 948.717L234.407 942.705L222.244 972.76L246.86 976.293C252.382 967.103 257.908 957.911 263.437 948.717Z" fill="#DDD7D7"/>
<path d="M335.595 911.946V942.705L364.329 965.989L379.275 957.554L335.595 911.946Z" fill="#C79560"/>
<path d="M335.594 942.705L297.011 950.662L289.562 946.685L281.682 921.494L335.594 911.946V942.705Z" fill="#DC9964"/>
<path d="M281.682 921.494L242.701 918.665L290.254 903.462L335.594 911.946L281.682 921.494Z" fill="#BA7345"/>
<path d="M242.704 918.665L234.41 942.705L263.44 948.717L289.565 946.688L281.685 921.497L242.704 918.665Z" fill="#E8A37A"/>
<path d="M402.359 762.922L301.473 739.058L310.712 811.182L402.359 762.922Z" fill="#E8A37A"/>
<path d="M94.717 441.568C100.245 471.712 105.775 501.866 111.308 532.028L142.536 615.821L153.069 591.781L114.917 509.753C108.186 487.017 101.453 464.288 94.717 441.568Z" fill="#655852"/>
<path d="M142.536 615.822L153.069 591.781L224.396 703.505L202.832 689.009L142.536 615.822Z" fill="#99887E"/>
<path d="M168.004 739.058L194.042 894.622L255.971 861.564L168.004 739.058Z" fill="#BA7345"/>
<path d="M254.462 784.495C260.318 799.979 266.173 815.462 272.027 830.944C272.391 813.676 272.755 796.411 273.118 779.147C244.944 743.038 216.767 706.93 188.589 670.824L254.462 784.495Z" fill="#655852"/>
<path d="M272.027 830.944L251.827 866.535L257.839 901.407L279.354 876.61C276.911 861.391 274.469 846.169 272.027 830.944Z" fill="#655852"/>
<path d="M194.042 894.622L168.004 918.665L216.159 906.645L239.383 911.946L255.971 861.564L194.042 894.622Z" fill="#945F2D"/>
<path d="M239.383 911.946L241.042 923.474L242.702 918.665L261.987 896.439L255.972 861.564L239.383 911.946Z" fill="#A36F3D"/>
<path d="M234.407 942.706L207.865 921.494L194.181 931.306L168.004 918.665L216.159 906.645L239.383 911.946L241.042 923.474L234.407 942.706Z" fill="#C79560"/>
<path d="M234.407 942.705L200.677 965.989L222.244 972.76L234.407 942.705Z" fill="#99887E"/>
<path d="M234.407 942.705L207.865 921.494L194.182 931.305L200.677 965.989L234.407 942.705Z" fill="#DDD7D7"/>
<path d="M200.677 965.989L181.311 972.76L194.181 931.305L200.677 965.989Z" fill="#C4B1A3"/>
<path d="M168.004 918.665L150.914 946.685L159.458 978.061L181.311 972.76L194.181 931.305L168.004 918.665Z" fill="#DDD7D7"/>
<path d="M162.424 927.818L143.498 945.169L141.456 979.543L158.268 973.688C155.814 964.689 153.363 955.689 150.915 946.688L162.424 927.818Z" fill="#C4B1A3"/>
<path d="M162.424 927.818L133.023 944.152L131.138 975.879L141.456 979.543L143.498 945.169L162.424 927.818Z" fill="#DDD7D7"/>
<path d="M204.523 791.028L194.042 894.622L168.004 739.058L204.523 791.028Z" fill="#945F2D"/>
<path d="M353.475 598.671L366.484 731.435L404.514 741.513L416.542 663.551L353.475 598.671Z" fill="#BA7345"/>
<path d="M416.541 717.647L427.737 761.664L402.026 803.031L404.514 741.513L416.541 717.647Z" fill="#99887E"/>
<path d="M391.384 324.49L378.995 276.406L337.75 215.946L371.477 332.27L391.384 324.49Z" fill="#BA7345"/>
<path d="M371.476 332.27L332.218 254.485L337.749 215.946L371.476 332.27Z" fill="#E8A37A"/>
<path d="M453.866 871.109L516.898 912.268L532.658 890.529L538.879 859.225L462.366 818.413C459.533 835.984 456.7 853.549 453.866 871.109Z" fill="#A36F3D"/>
<path d="M516.898 912.279L627.625 936.146L722.591 850.231L532.658 890.538L516.898 912.279Z" fill="#945F2D"/>
<path d="M424.407 876.225L457.181 929.268L516.897 912.297L462.365 818.454L424.407 876.225Z" fill="#945F2D"/>
<path d="M631.922 932.256L668.679 951.349L707.662 904.326L722.591 850.231L631.922 932.256Z" fill="#BA7345"/>
<path d="M457.182 929.25L532.658 961.07L627.625 936.146L516.898 912.279L457.182 929.25Z" fill="#BA7345"/>
<path d="M668.678 951.349L532.658 961.07L631.922 932.256L668.678 951.349Z" fill="#945F2D"/>
<path d="M532.658 961.07L498.03 917.642L462.988 909.894L420.689 925.274L406.035 956.653L532.658 961.07Z" fill="#DDD7D7"/>
<path d="M498.03 917.642L453.866 958.322L532.658 961.07L498.03 917.642Z" fill="#99887E"/>
<path d="M453.865 958.323L462.988 909.894L498.03 917.642L453.865 958.323Z" fill="#C4B1A3"/>
<path d="M498.03 917.642L668.678 951.349L656.64 909.894L516.897 912.28L498.03 917.642Z" fill="#655852"/>
<path d="M656.64 909.894L532.658 961.071L668.678 951.349L656.64 909.894Z" fill="#945F2D"/>
<path d="M337.75 215.941L312.867 197.909L311.068 308.572C318.121 290.541 325.168 272.509 332.209 254.477L337.75 215.941Z" fill="#FAC29D"/>
<path d="M150.028 353.835H224.396L185.137 479.657L150.028 353.835Z" fill="#DDD7D7"/>
<path d="M150.028 353.835L138.69 408.284L185.137 479.657L150.028 353.835Z" fill="#CCBEB3"/>
<path d="M185.137 479.657L239.049 408.284L224.395 353.835L185.137 479.657Z" fill="#CCBEB3"/>
<path d="M185.137 479.657L138.69 408.284C123.737 382.97 108.784 357.65 93.8309 332.325L133.162 443.286L185.137 479.657Z" fill="#1D1D1B"/>
<path d="M185.137 479.657L255.36 429.145C271.384 396.26 287.416 363.376 303.454 330.493L239.049 408.284L185.137 479.657Z" fill="#1D1D1B"/>
<path d="M224.396 353.835L270.843 299.032L311.068 308.58C308.531 315.884 305.994 323.189 303.455 330.493L239.05 408.284L224.396 353.835Z" fill="#C4B1A3"/>
<path d="M312.867 197.918L270.843 299.033L311.069 308.58L312.867 197.918Z" fill="#E8A37A"/>
<path d="M311.068 308.58L335.256 313.911L332.218 254.491L317.014 293.383C315.033 298.446 313.051 303.512 311.068 308.58Z" fill="#F5B288"/>
<path d="M766.454 867.282C771.893 878.37 777.333 889.457 782.774 900.543C770.572 919.362 758.373 938.183 746.176 957.006L679.568 958.183L766.454 867.282Z" fill="#945F2D"/>
<path d="M766.454 867.282L746.182 957.006L679.573 958.183L766.454 867.282Z" fill="#A36F3D"/>
<path d="M746.176 957.007L778.522 951.703L786 932.816L746.176 957.007Z" fill="#BA7345"/>
<path d="M778.522 951.702L696.591 1003.76L654.309 986.711L746.177 957.007L778.522 951.702Z" fill="#945F2D"/>
<path d="M654.32 986.705L621.83 954.697L679.562 958.175L746.171 956.998L654.32 986.705Z" fill="#BA7345"/>
<path d="M652.09 1007.57L528.511 1021L386.269 1007.57L323.373 979.456L337.749 961.07L378.995 953.824L453.866 958.322L532.658 961.07L577.998 957.83L606.68 986.351L652.09 1007.57Z" fill="#945F2D"/>
<path d="M606.68 986.351L516.898 993.421L532.658 961.07L577.998 957.83L606.68 986.351Z" fill="#E8A37A"/>
<path d="M516.897 993.421L493.26 1017.67L386.269 1007.57L441.424 986.352L516.897 993.421Z" fill="#BA7345"/>
<path d="M441.425 986.351L337.75 961.07L378.995 953.824L532.658 961.07L516.898 993.421L441.425 986.351Z" fill="#FAC29D"/>
<path d="M386.269 1007.57L337.749 961.07L441.424 986.351L386.269 1007.57Z" fill="#E8A37A"/>
<path d="M654.32 986.705L696.603 1003.75L746.177 957.007L654.32 986.705Z" fill="#A36F3D"/>
<path d="M621.829 954.696L709.185 927.192L679.562 958.183L621.829 954.696Z" fill="#C79560"/>
<path d="M131.138 975.876L137.66 986.972L148.161 987.992L141.457 979.54L131.138 975.876Z" fill="#99887E"/>
<path d="M148.161 987.992L167.225 986.018L158.268 973.685L141.456 979.54L148.161 987.992Z" fill="#655852"/>
<path d="M158.268 973.685L165.152 987.696L181.312 989.378V972.76L158.268 973.685Z" fill="#99887E"/>
<path d="M181.311 989.377L198.328 985.134L200.677 965.989L181.311 972.76V989.377Z" fill="#655852"/>
<path d="M198.329 985.134L217.544 985.487L222.244 972.76L200.677 965.989L198.329 985.134Z" fill="#655852"/>
<path d="M217.544 985.499L226.113 992.922H245.467L246.849 976.305L222.232 972.772L217.544 985.499Z" fill="#99887E"/>
<path d="M245.467 992.911H258.053C257.76 989.601 257.47 986.291 257.184 982.981L246.869 976.294L245.467 992.911Z" fill="#655852"/>
<path d="M258.053 992.911L269.745 997.035L277.961 995.032C277.574 990.569 277.188 986.104 276.802 981.638L257.158 982.98C257.458 986.291 257.756 989.601 258.053 992.911Z" fill="#99887E"/>
<path d="M277.952 995.032L292.05 992.91L289.562 978.061L276.82 981.638C277.194 986.106 277.572 990.57 277.952 995.032Z" fill="#655852"/>
<path d="M292.05 992.911H304.077L307.298 975.737L295.23 979.242L289.562 978.062L292.05 992.911Z" fill="#99887E"/>
<path d="M304.077 992.911H322.739L321.218 971.699L307.297 975.737L304.077 992.911Z" fill="#655852"/>
<path d="M322.739 992.911L332.936 990.528L335.594 982.482C335.336 979.839 335.079 977.196 334.824 974.554L321.212 971.699L322.739 992.911Z" fill="#99887E"/>
<path d="M416.542 863.488L383.779 909.894L386.269 882.05L416.542 863.488Z" fill="#99887E"/>
<path d="M337.75 216.964C332.112 185.64 326.474 154.317 320.837 122.994L305.412 108.344L307.15 196.123L337.75 216.964Z" fill="#E8A37A"/>
<path d="M266.29 20.9885L288.3 5.80023L323.631 0.00317383L267.738 43.4405L266.29 20.9885Z" fill="#BA7345"/>
<path d="M290.802 25.516L329.797 16.6958L323.64 0.000244141L290.802 25.516Z" fill="#C4B1A3"/>
<path d="M329.796 16.6958L342.597 54.852L346.043 25.516L323.64 0.000244141L329.796 16.6958Z" fill="#CCBEB3"/>
<path d="M342.597 54.8523C340.634 71.3391 338.671 87.825 336.71 104.31L320.837 122.994L303.704 113.521L342.597 54.8523Z" fill="#CCBEB3"/>
<path d="M302.105 93.965L342.597 54.8523C329.096 76.9545 315.599 99.0568 302.105 121.159V93.965Z" fill="#C4B1A3"/>
<path d="M302.105 93.9647L294.964 49.1303L267.738 43.4376L269.241 66.7766L302.105 93.9647Z" fill="#655852"/>
<path d="M294.963 49.1301L329.797 16.6956L290.802 25.5158L267.738 43.4374L294.963 49.1301Z" fill="#99887E"/>
<path d="M329.797 16.6956L302.105 93.9645L294.963 49.1301L329.797 16.6956Z" fill="#C4B1A3"/>
<path d="M302.105 93.9645L329.797 16.6956L342.597 54.8518L302.105 93.9645Z" fill="#DDD7D7"/>
<path d="M213.99 188.943L207.535 233.042L176.345 243.442L150.032 238.549C147.869 223.863 145.707 209.182 143.544 194.506L213.99 188.943Z" fill="#FAC29D"/>
<path d="M213.99 188.943L203.133 166.787L188.175 159.99L196.258 190.346L213.99 188.943Z" fill="#DC9964"/>
<path d="M162.901 162.437L160.81 193.149L143.541 194.515L151.068 171.68L162.901 162.437Z" fill="#DC9964"/>
<path d="M196.258 190.346L176.345 201.039L160.81 193.149L162.901 162.436L174.193 146.124L188.175 159.99L196.258 190.346Z" fill="#E8A37A"/>
<path d="M178.992 140.373L193.014 112.64L202.218 129.376L203.13 166.787L188.175 159.999C185.117 153.454 182.056 146.912 178.992 140.373Z" fill="#BA7345"/>
<path d="M167.74 140.373L153.22 117.475L145.997 132.486C147.688 145.549 149.379 158.615 151.068 171.683L162.901 162.44L167.74 140.373Z" fill="#BA7345"/>
<path d="M207.536 233.042L181.723 261.384L150.032 238.549L178.992 238.717L207.536 233.042Z" fill="#945F2D"/>
<path d="M213.991 188.943L233.351 231.216L207.535 233.05L213.991 188.943Z" fill="#BA7345"/>
<path d="M150.031 238.549L126.863 243.442L143.535 194.506C145.7 209.194 147.865 223.875 150.031 238.549Z" fill="#BA7345"/>
<path d="M181.723 261.392L218.242 280.966L248.94 259.227L233.345 231.225L207.529 233.059L181.723 261.392Z" fill="#C4B1A3"/>
<path d="M181.723 261.392L153.759 284.227L119.875 261.392L126.863 243.45L150.032 238.549L181.723 261.392Z" fill="#C4B1A3"/>
<path d="M218.241 280.966L181.723 276.192L153.759 284.227L181.723 261.392L218.241 280.966Z" fill="#655852"/>
<path d="M218.241 280.966L205.386 297.276L181.723 276.192L218.241 280.966Z" fill="#CCBEB3"/>
<path d="M181.723 276.192L160.813 299.453L153.759 284.227L181.723 276.192Z" fill="#CCBEB3"/>
<path d="M218.242 280.966L240.877 299.452L217.781 323.049L205.386 297.276L218.242 280.966Z" fill="#DDD7D7"/>
<path d="M160.813 299.453L150.967 323.05L129.47 301.158L153.744 284.233L160.813 299.453Z" fill="#DDD7D7"/>
<path d="M233.351 231.216L257.55 216.196L260.776 180.924L223.131 171.68L213.991 188.944L233.351 231.216Z" fill="#945F2D"/>
<path d="M143.542 194.514L133.86 178.477L95.679 183.642L104.283 218.984L126.869 243.45L143.542 194.514Z" fill="#945F2D"/>
<path d="M260.709 181.663L281.222 154.045L267.61 129.793L260.709 181.663Z" fill="#945F2D"/>
<path d="M95.679 183.642C93.4374 166.877 91.1968 150.112 88.9572 133.347L82.2325 167.892L95.679 183.642Z" fill="#945F2D"/>
<path d="M267.59 129.793L248.945 162.437L223.133 171.68L260.782 180.923C263.048 163.882 265.318 146.839 267.59 129.793Z" fill="#1D1D1B"/>
<path d="M133.86 178.477L103.208 171.68C98.536 160.003 93.8656 148.324 89.1972 136.643L95.6786 183.642L133.86 178.477Z" fill="#1D1D1B"/>
<path d="M151.068 171.68L133.996 141.158L145.997 132.483C147.688 145.546 149.379 158.611 151.068 171.68Z" fill="#CCBEB3"/>
<path d="M203.133 166.788C207.361 157.072 211.59 147.356 215.821 137.64L202.209 129.376L203.133 166.788Z" fill="#CCBEB3"/>
<path d="M215.821 137.64C218.256 150.15 220.693 162.659 223.134 175.167L213.991 188.944L203.133 166.787C207.362 157.071 211.591 147.356 215.821 137.64Z" fill="#1D1D1B"/>
<path d="M143.542 194.514L151.072 171.68L133.997 141.158L133.86 178.477L143.542 194.514Z" fill="#1D1D1B"/>
<path d="M133.91 164.987C133.892 169.482 133.876 173.978 133.86 178.477L103.209 171.68L133.91 164.987Z" fill="#DDD7D7"/>
<path d="M220.022 159.999L223.133 175.176L248.945 165.55L220.022 159.999Z" fill="#DDD7D7"/>
<path d="M257.55 216.196L298.963 189.054L260.779 180.938L257.55 216.196Z" fill="#E8A37A"/>
<path d="M104.283 218.984L67.7148 201.039L95.6789 183.642L104.283 218.984Z" fill="#E8A37A"/>
<path d="M248.946 259.218L298.96 189.053L233.35 231.215L248.946 259.218Z" fill="#1D1D1B"/>
<path d="M119.878 261.392L67.7151 201.039L104.283 218.984L126.87 243.45L119.878 261.392Z" fill="#1D1D1B"/>
<path d="M240.877 299.453C257.462 284.819 274.046 270.183 290.631 255.546C293.407 233.384 296.184 211.219 298.96 189.053L248.946 259.218L218.248 280.957L240.877 299.453Z" fill="#D4CBC6"/>
<path d="M129.47 301.158L67.431 248.854L67.7003 201.045L119.878 261.393L153.762 284.227L129.47 301.158Z" fill="#D4CBC6"/>
<path d="M193.017 112.64L170.428 78.3418L153.22 117.472L174.072 150.686C180.389 138.002 186.704 125.32 193.017 112.64Z" fill="#E8A37A"/>
<path d="M153.22 117.472L118.534 70.4492L170.428 78.3419L153.22 117.472Z" fill="#DC9964"/>
<path d="M193.017 112.64L220.022 70.4492L170.428 78.3419L193.017 112.64Z" fill="#DC9964"/>
<path d="M202.221 129.376L268.25 115.211C266.422 119.225 264.595 123.237 262.771 127.249L230.475 144.889L215.835 137.643L202.221 129.376Z" fill="#DDD7D7"/>
<path d="M263.947 126.553L267.101 133.469L248.945 165.541L220.023 159.999L218.285 150.787L239.032 140.932L243.087 138.776C250.043 134.701 256.996 130.626 263.947 126.553Z" fill="#C4B1A3"/>
<path d="M133.909 164.987L103.211 171.68C97.981 159.788 92.7527 147.894 87.5263 135.999L117.046 149.042L134.897 151.981L133.909 164.987Z" fill="#C4B1A3"/>
<path d="M145.998 132.483L88.7749 127.863L87.5238 135.999L108.039 144.637L119.6 137.101L133.996 141.159L145.998 132.483Z" fill="#DDD7D7"/>
<path d="M153.22 117.472L97.2915 101.275L118.534 70.4492L153.22 117.472Z" fill="#BA7345"/>
<path d="M193.018 112.64L240.877 96.5736L220.023 70.4492L193.018 112.64Z" fill="#BA7345"/>
<path d="M240.877 96.5732L202.221 129.376L193.018 112.64L240.877 96.5732Z" fill="#E8A37A"/>
<path d="M202.221 129.376L257.856 120.289C252.197 112.382 246.538 104.476 240.877 96.5707L202.221 129.376Z" fill="#A0713B"/>
<path d="M145.998 132.484L97.2922 101.275L88.775 132.315L145.998 132.484Z" fill="#A0713B"/>
<path d="M97.2919 101.275L145.997 132.484L153.217 117.472L97.2919 101.275Z" fill="#E8A37A"/>
<path d="M281.222 154.045L305.421 120.883L298.969 189.053L260.784 180.938L281.222 154.045Z" fill="#BA7345"/>
<path d="M305.412 120.883L298.96 189.053L300.141 208.955L307.159 196.123L305.412 120.883Z" fill="#945F2D"/>
<path d="M82.2326 167.891L57.1472 131.593C60.6687 154.747 64.1913 177.9 67.7148 201.053L95.679 183.662L82.2326 167.891Z" fill="#BA7345"/>
<path d="M310.008 114.103L293.066 91.5442L257.856 120.289C261.1 124.869 264.345 129.496 267.59 134.17C272.224 140.831 276.761 147.455 281.201 154.042L310.008 114.103Z" fill="#DC9964"/>
<path d="M91.3811 126.544L67.7147 108.344L57.147 131.593L82.2325 167.906C84.4914 157.808 86.733 147.706 88.9572 137.602C89.7642 133.915 90.5721 130.229 91.3811 126.544Z" fill="#DC9964"/>
<path d="M67.7146 216.195L37.732 152.379L57.1354 131.579C60.6647 153.907 64.1911 176.231 67.7146 198.549V216.195Z" fill="#1D1D1B"/>
<path d="M37.7317 155.874C36.8243 146.008 35.9169 136.14 35.0095 126.272L45.8001 96.5732L67.7144 108.344L57.1467 131.593L37.7317 155.874Z" fill="#BA7345"/>
<path d="M293.066 91.5442L269.516 61.3213L220.023 70.4487L240.874 96.5732C246.535 104.478 252.196 112.384 257.856 120.289L293.066 91.5442Z" fill="#C79560"/>
<path d="M118.534 70.4492L67.7145 72.2927L45.8002 96.5736L67.7145 108.345L91.3722 125.55C93.3454 117.457 95.3186 109.366 97.2917 101.275L118.534 70.4492Z" fill="#C79560"/>
<path d="M269.516 61.321L201.082 31.5387L170.428 78.3412L220.022 70.4485L269.516 61.321Z" fill="#BA7345"/>
<path d="M170.428 78.3412L132.38 31.5387L67.7149 72.292L118.534 70.4485L170.428 78.3412Z" fill="#BA7345"/>
<path d="M201.083 31.5395L166.25 5.41504L132.366 31.5395L170.429 78.342L201.083 31.5395Z" fill="#C79560"/>
<path d="M166.249 5.41504L240.877 11.9628L269.516 61.3218L201.082 31.5395L166.249 5.41504Z" fill="#945F2D"/>
<path d="M166.249 5.41504L92.4408 16.1222L67.7029 72.2928L132.365 31.5395L166.249 5.41504Z" fill="#945F2D"/>
<path d="M240.877 11.9623L266.675 20.1883L269.516 61.3213L240.877 11.9623Z" fill="#DC9964"/>
<path d="M269.516 61.3213L310.008 114.103L305.412 91.1007L269.516 61.3213Z" fill="#945F2D"/>
<path d="M67.7144 72.2922L31.4039 104.73L35.0095 126.271C39.4501 116.822 43.8907 107.374 48.3313 97.9268L67.7144 72.2922Z" fill="#945F2D"/>
<path d="M69.7824 52.3592L15.6238 10.1161L54.4537 14.0494L85.8293 31.1507L69.7824 52.3592Z" fill="#BA7345"/>
<path d="M15.6238 10.1161L-0.000367165 32.3014L6.98203 62.7736L15.6238 10.1161Z" fill="#C4B1A3"/>
<path d="M6.98242 62.7736L26.5914 18.6725L15.6241 10.1161L6.98242 62.7736Z" fill="#CCBEB3"/>
<path d="M6.96759 62.7738L20.6369 98.2431L33.0609 115.71L45.4009 91.8837L6.96759 62.7738Z" fill="#CCBEB3"/>
<path d="M42.2009 30.8462C42.363 53.6479 42.5262 76.4497 42.6903 99.2514C46.5517 90.4476 50.4131 81.6438 54.2744 72.84L69.7739 52.3561L42.2009 30.8462Z" fill="#655852"/>
<path d="M42.6903 99.2541L26.5912 18.675L42.2008 30.8489C42.363 53.6506 42.5262 76.4523 42.6903 99.2541Z" fill="#99887E"/>
<path d="M42.2008 30.8462L6.98224 62.7734L26.5912 18.6724L42.2008 30.8462Z" fill="#C4B1A3"/>
<path d="M32.0792 40.0232C35.6104 59.766 39.1475 79.5098 42.6903 99.2546L6.96771 62.7737L32.0792 40.0232Z" fill="#DDD7D7"/>
<path d="M92.4526 16.1218L76.3739 25.9971C73.4778 41.4289 70.5915 56.8606 67.7148 72.2924L92.4526 16.1218Z" fill="#DC9964"/>
<path d="M74.2888 38.7419L54.283 72.8431C48.9041 83.8575 43.5271 94.8719 38.152 105.886L69.7971 76.2315L74.2888 38.7419Z" fill="#BA7345"/>
<path d="M37.732 152.379L53.8658 218.998L67.7146 238.549L67.6972 213.824L37.732 152.379Z" fill="#C37746"/>
<path d="M293.043 241.97C300.403 228.149 307.761 214.327 315.117 200.503L305.82 119.382C303.706 142.623 301.419 165.847 298.96 189.054C297.085 206.704 295.113 224.343 293.043 241.97Z" fill="#C37746"/>
<path d="M639.009 614.488L592.093 615.813L538.873 638.088L590.712 629.601L674.482 673.079L639.009 614.488Z" fill="#1D1D1B"/>
<path d="M407.419 359.128L420.689 521.057C424.674 476.713 428.66 432.366 432.646 388.015L407.419 359.128Z" fill="#1D1D1B"/>
<path d="M522.704 479.657L512.751 509.755L480.405 532.028L531.424 521.593L551.812 509.628L522.704 479.657Z" fill="#1D1D1B"/>
<path d="M646.701 789.773L532.658 890.537L521.766 922.331L498.03 917.642L538.878 859.248L646.701 789.773Z" fill="#1D1D1B"/>
<path d="M717.613 767.498L626.388 748.406L719.577 800.104L717.613 767.498Z" fill="#1D1D1B"/>
<path d="M561.789 739.597L511.398 748.406L462.36 818.437C458.112 850.541 453.864 882.647 449.617 914.755L424.422 876.219L436.874 807.814L501.969 731.435L561.789 739.597Z" fill="#1D1D1B"/>
<path d="M443.912 603.094L416.541 717.646C411.164 748.807 405.787 779.97 400.41 811.135C401.777 787.926 403.145 764.718 404.514 741.513L416.541 663.542L443.912 603.094Z" fill="#1D1D1B"/>
<path d="M351.847 484.298L308.444 603.094C304.583 651.635 300.721 700.175 296.86 748.716C297.661 696.585 298.464 644.456 299.269 592.329L351.847 484.298Z" fill="#1D1D1B"/>
<path d="M291.143 802.06L294.783 768.02L189.177 672.435L291.143 802.06Z" fill="#1D1D1B"/>
<path d="M269.516 61.3212L193.017 43.8547C190.718 36.0075 188.419 28.1611 186.122 20.3158L269.516 61.3212Z" fill="#1D1D1B"/>
<path d="M143.84 45.6344C144.875 37.1939 145.908 28.7544 146.939 20.3158L67.7148 72.2922L143.84 45.6344Z" fill="#1D1D1B"/>
<path d="M782.774 900.543C770.572 919.363 758.373 938.184 746.176 957.007L786 932.816C784.924 922.056 783.849 911.299 782.774 900.543Z" fill="#1D1D1B"/>
<path d="M667.757 940.236C671.69 946.226 675.625 952.209 679.562 958.183L709.185 927.192L667.757 940.236Z" fill="#1D1D1B"/>
<path d="M606.681 986.352C606.628 995.074 606.575 1003.8 606.521 1012.52L652.09 1007.57L606.681 986.352Z" fill="#1D1D1B"/>
<path d="M577.998 957.83L516.892 993.421L532.652 961.07L577.998 957.83Z" fill="#1D1D1B"/>
<path d="M441.424 986.352L438.149 1012.46L386.269 1007.57L441.424 986.352Z" fill="#1D1D1B"/>
<path d="M378.995 953.824L351.847 975.627V992.183L323.374 979.456L337.749 961.07L376.125 954.328" fill="#1D1D1B"/>
<path d="M153.22 117.472L120.952 108.127L138.467 97.4689L153.22 117.472Z" fill="#1D1D1B"/>
<path d="M193.017 112.64L218.241 104.171L207.48 90.0433L193.017 112.64Z" fill="#1D1D1B"/>
<path d="M186.122 20.3164L240.878 11.9628L166.261 5.41504L186.122 20.3164Z" fill="#1D1D1B"/>
<path d="M146.939 20.3164L92.4527 16.1222L166.261 5.41504L146.939 20.3164Z" fill="#1D1D1B"/>
<path d="M193.018 43.8553L170.429 35.7394L143.84 45.6205L132.366 31.5395L146.924 20.3164L166.25 5.41504L188.175 21.8555L201.083 31.5395L193.018 43.8553Z" fill="#1D1D1B"/>
<path d="M170.428 78.3417L143.84 45.6348L168.413 25.5248L193.017 43.8551L170.428 78.3417Z" fill="#1D1D1B"/>
<path d="M182.433 6.83242L168.43 14.8208L151.069 7.61792L166.261 5.41504L182.433 6.83242Z" fill="#1D1D1B"/>
<path d="M75.3949 33.4808L54.4536 14.0491L76.3738 25.9968L75.3949 33.4808Z" fill="#1D1D1B"/>
<path d="M267.159 27.6054L288.3 5.7998L266.66 20.1881L267.159 27.6054Z" fill="#1D1D1B"/>
<path d="M268.633 274.96L323.582 220.636C318.446 193.622 313.312 166.607 308.181 139.591C308.511 159.99 308.843 180.388 309.177 200.784L268.633 274.96Z" fill="#1D1D1B"/>
<path d="M364.329 752.846L351.32 852.196L402.359 762.922L364.329 752.846Z" fill="#BA7345"/>
<path d="M217.781 323.05L182.513 335.418L150.978 323.05L160.825 299.453L181.734 276.192L205.397 297.276L217.781 323.05Z" fill="#D4CBC6"/>
<path d="M181.723 261.392L217.344 276.754L232.982 270.549L218.256 280.983L181.737 276.209L153.773 284.244L141.899 276.244L154.526 279.838L181.723 261.392Z" fill="#454146"/>
<path d="M206.041 279.236L182.566 288.975L160.168 282.343L181.567 275.155L206.041 279.236Z" fill="#99887E"/>
<path d="M124.106 161.787C116.318 161.787 110.005 155.687 110.005 148.161C110.005 140.636 116.318 134.535 124.106 134.535C131.894 134.535 138.207 140.636 138.207 148.161C138.207 155.687 131.894 161.787 124.106 161.787Z" fill="#1D1D1B"/>
<path d="M231.427 128.541L258.268 129.964L243.101 138.776L231.427 128.541Z" fill="#1D1D1B"/>
<path d="M120.889 134.892L94.3875 138.918L110.067 146.874L120.889 134.892Z" fill="#1D1D1B"/>
<path d="M125.059 158.712C119.175 158.712 114.404 153.822 114.404 147.79C114.404 141.759 119.175 136.869 125.059 136.869C130.943 136.869 135.713 141.759 135.713 147.79C135.713 153.822 130.943 158.712 125.059 158.712Z" fill="#D3C970"/>
<path d="M115.073 143.973C116.637 142.466 118.584 141.417 120.702 140.94C122.82 140.464 125.028 140.577 127.086 141.268C129.211 142.014 131.091 143.33 132.52 145.071C133.95 146.812 134.875 148.913 135.195 151.144C135.986 148.507 135.81 145.674 134.7 143.155C132.308 137.915 126.831 137.016 126.545 136.973C122.177 136.335 119.015 138.761 118.514 139.17C116.954 140.43 115.765 142.09 115.073 143.973Z" fill="#BCA43F"/>
<path d="M128.051 146.955C128.071 148.376 126.965 149.915 125.809 149.834C124.654 149.752 123.872 148.141 123.938 146.825C123.993 145.689 124.729 144.257 125.809 144.179C126.962 144.086 128.022 145.584 128.051 146.955Z" fill="#1D1D1B"/>
<path d="M167.741 140.373L162.901 162.436L172.843 148.074L167.741 140.373Z" fill="#DC9964"/>
<path d="M188.175 159.999L175.143 147.976L178.992 140.373C182.054 146.912 185.115 153.454 188.175 159.999Z" fill="#DC9964"/>
<path d="M184.205 99.2574L184.622 129.243L193.017 112.64L184.205 99.2574Z" fill="#C79560"/>
<path d="M160.813 100.211L161.598 130.782L153.217 117.472L160.813 100.211Z" fill="#C79560"/>
<path d="M184.205 99.2576L160.81 100.211L170.428 78.3418L184.205 99.2576Z" fill="#BA7345"/>
<path d="M160.811 100.211L118.534 70.4492L170.428 78.3419L160.811 100.211Z" fill="#1D1D1B"/>
<path d="M220.022 70.4492L184.204 99.2576L170.428 78.3419L220.022 70.4492Z" fill="#1D1D1B"/>
<path d="M97.2917 101.275L67.7145 108.345L91.381 126.544C93.3503 118.123 95.3205 109.7 97.2917 101.275Z" fill="#BA7345"/>
<path d="M240.877 96.5732L257.857 120.292L274.182 106.962L240.877 96.5732Z" fill="#BA7345"/>
<path d="M93.6484 71.3503L48.3226 97.9269L67.7145 72.2924L93.6484 71.3503Z" fill="#DC9964"/>
<path d="M293.066 91.5442L245.36 65.7763L269.516 61.3213L293.066 91.5442Z" fill="#DC9964"/>
<path d="M73.9236 82.9154L67.7145 108.344L48.3226 97.9269L73.9236 82.9154Z" fill="#1D1D1B"/>
<path d="M293.066 91.5447L274.181 106.962L270.993 79.623L293.066 91.5447Z" fill="#1D1D1B"/>
<path d="M67.7147 108.344L82.2324 167.892L57.1442 131.579L67.7147 108.344Z" fill="#E8A37A"/>
<path d="M293.066 91.5442L281.213 154.045L310.008 114.103L293.066 91.5442Z" fill="#E8A37A"/>
<path d="M281.222 154.046L298.969 189.054C301.247 165.819 303.531 142.596 305.821 119.382C297.615 130.936 289.416 142.49 281.222 154.046Z" fill="#1D1D1B"/>
<path d="M57.1472 131.593C56.6182 150.724 56.0902 169.845 55.5631 188.958L37.7322 152.393L57.1472 131.593Z" fill="#DC9964"/>
<path d="M143.84 45.6348L118.535 70.4491L67.715 72.2925L143.84 45.6348Z" fill="#945F2D"/>
<path d="M269.516 61.3215L220.023 70.449L193.017 43.855L269.516 61.3215Z" fill="#945F2D"/>
<path d="M268.633 274.96C278.744 246.326 288.853 217.691 298.96 189.053C297.558 201.755 296.159 214.457 294.761 227.16L268.633 274.96Z" fill="#DDD7D7"/>
<path d="M160.813 193.149C157.217 208.286 153.623 223.419 150.031 238.549C147.869 223.863 145.707 209.182 143.544 194.506L160.813 193.149Z" fill="#E8A37A"/>
<path d="M196.258 190.346L207.535 233.042L213.99 188.935L196.258 190.346Z" fill="#E8A37A"/>
<path d="M207.536 233.042L178.766 231.207L150.032 238.549L178.627 238.717L207.536 233.042Z" fill="#E8A37A"/>
<path d="M147.683 145.506L127.81 132.425L145.997 132.48L147.683 145.506Z" fill="#945F2D"/>
<path d="M202.551 142.912L219.956 126.478L202.221 129.376L202.551 142.912Z" fill="#945F2D"/>
<path d="M54.4539 14.0491L66.5884 51.8661L74.289 41.9271L75.3953 33.4808L54.4539 14.0491Z" fill="#945F2D"/>
<path d="M268.097 42.0082L267.159 27.6054L288.3 5.7998L268.097 42.0082Z" fill="#945F2D"/>
<path d="M104.283 218.984L119.878 261.392L126.87 243.45L104.283 218.984Z" fill="#C79560"/>
<path d="M233.35 231.216L248.945 259.219C251.708 244.506 254.472 229.794 257.237 215.083L233.35 231.216Z" fill="#C79560"/>
<path d="M167.741 140.373L151.068 171.677L162.901 162.433L167.741 140.373Z" fill="#A0713B"/>
<path d="M188.175 159.999L203.133 166.796L178.992 140.373C182.054 146.912 185.115 153.454 188.175 159.999Z" fill="#A0713B"/>
<path d="M167.74 140.373L145.997 132.483L153.22 117.472L167.74 140.373Z" fill="#A0713B"/>
<path d="M202.221 129.376L178.995 140.373L193.017 112.64L202.221 129.376Z" fill="#A0713B"/>
<path d="M117.703 114.353L90.1152 132.324L97.2915 101.275L117.703 114.353Z" fill="#1D1D1B"/>
<path d="M257.856 120.292L226.901 108.431L240.877 96.5732L257.856 120.292Z" fill="#1D1D1B"/>
<path d="M143.542 194.514L104.283 218.984L126.869 243.45L143.542 194.514Z" fill="#A0713B"/>
<path d="M213.99 188.943L257.234 215.082L233.35 231.216L213.99 188.943Z" fill="#A0713B"/>
<path d="M143.542 194.514L95.679 183.642L133.86 178.477L143.542 194.514Z" fill="#A0713B"/>
<path d="M213.991 188.944L260.776 180.923L227.935 172.793L222.989 174.532L213.991 188.944Z" fill="#A0713B"/>
<path d="M151.068 171.68L133.86 178.477L143.541 194.515L151.068 171.68Z" fill="#2D2824"/>
<path d="M213.991 188.943L223.012 174.517L203.145 166.787L213.991 188.943Z" fill="#2D2824"/>
<path d="M153.22 117.472L129.356 103.014L120.952 108.127L153.22 117.472Z" fill="#2D2824"/>
<path d="M193.017 112.64L218.241 104.17L212.455 96.5732L193.017 112.64Z" fill="#2D2824"/>
<path d="M248.946 165.541L260.776 180.923L227.935 172.793L248.946 165.541Z" fill="#2D2824"/>
<path d="M133.86 178.477L95.6785 183.642L103.208 171.68L133.86 178.477Z" fill="#2D2824"/>
<path d="M193.017 43.855L170.428 53.3969L143.84 45.6347L170.428 78.3417L193.017 43.855Z" fill="#2D2824"/>
<path d="M229.244 155.674C221.36 155.674 214.969 149.574 214.969 142.048C214.969 134.523 221.36 128.422 229.244 128.422C237.127 128.422 243.518 134.523 243.518 142.048C243.518 149.574 237.127 155.674 229.244 155.674Z" fill="#1D1D1B"/>
<path d="M228.407 152.596C222.523 152.596 217.752 147.706 217.752 141.674C217.752 135.642 222.523 130.753 228.407 130.753C234.291 130.753 239.062 135.642 239.062 141.674C239.062 147.706 234.291 152.596 228.407 152.596Z" fill="#D3C970"/>
<path d="M238.392 137.86C236.828 136.352 234.881 135.303 232.762 134.825C230.644 134.348 228.435 134.461 226.376 135.153C224.251 135.899 222.372 137.214 220.942 138.955C219.512 140.697 218.587 142.797 218.268 145.028C217.477 142.392 217.651 139.559 218.76 137.04C221.155 131.799 226.631 130.901 226.918 130.857C231.285 130.22 234.448 132.649 234.949 133.054C236.508 134.317 237.698 135.977 238.392 137.86Z" fill="#BCA43F"/>
<path d="M225.415 140.834C225.392 142.254 226.501 143.796 227.657 143.715C228.812 143.634 229.594 142.023 229.527 140.707C229.469 139.567 228.734 138.138 227.657 138.057C226.487 137.97 225.435 139.469 225.415 140.834Z" fill="#1D1D1B"/>
<path d="M404.514 741.513L402.36 762.922L366.484 731.435L404.514 741.513Z" fill="#1D1D1B"/>
<path d="M402.359 762.922L364.329 752.846L366.483 731.435L402.359 762.922Z" fill="#A0713B"/>
<path d="M291.143 802.06C294.148 773.962 297.152 745.864 300.156 717.766L306.663 740.284L291.143 802.06Z" fill="#A0713B"/>
<path d="M404.515 741.513L402.36 762.922L400.411 811.136L402.027 803.031L412.424 741.513H404.515Z" fill="#1D1D1B"/>
<path d="M306.663 740.284L300.156 717.765L334.94 654.737L306.663 740.284Z" fill="#BA7345"/>
<path d="M121.633 603.627L99.4347 529.561C98.0678 501.332 96.7018 473.105 95.3368 444.881L111.323 532.034L142.536 615.822L121.633 603.627Z" fill="#C37746"/>
<path d="M150.031 353.835L112.754 312.615L90.7872 297.972C91.8027 309.425 92.8183 320.876 93.8338 332.325C108.787 357.639 123.74 382.958 138.693 408.284L150.031 353.835Z" fill="#C4B1A3"/>
<path d="M121.633 603.627C129.267 631.453 136.903 659.279 144.54 687.105C152.363 704.417 160.183 721.731 167.998 739.047L189.171 672.424L142.53 615.81L121.633 603.627Z" fill="#C79560"/>
<path d="M189.177 672.435L255.971 861.564L272.026 830.944L254.465 784.495L189.177 672.435Z" fill="#C4B1A3"/>
<path d="M223.335 769.15L168.004 739.058L189.177 672.435L223.335 769.15Z" fill="#DC9964"/>
<path d="M223.336 769.15L204.523 791.028L255.971 861.564L223.336 769.15Z" fill="#DC9964"/>
<path d="M223.335 769.15L204.523 791.029L168.004 739.058L223.335 769.15Z" fill="#E8A37A"/>
<path d="M223.336 769.15L254.465 784.495L189.177 672.435L223.336 769.15Z" fill="#99887E"/>
<path d="M40.8251 231.094L90.7846 297.969L106.574 281.824C84.6566 264.916 62.7404 248.006 40.8251 231.094Z" fill="#99887E"/>
<path d="M323.582 220.636L284.196 295.74L268.633 274.96L323.582 220.636Z" fill="#99887E"/>
<path d="M284.196 295.74L240.877 299.453L268.633 274.96L284.196 295.74Z" fill="#C4B1A3"/>
<path d="M67.7148 201.039C80.6658 227.978 93.6188 254.907 106.574 281.827L66.9155 251.253C67.1858 234.515 67.4522 217.777 67.7148 201.039Z" fill="#DDD7D7"/>
<path d="M90.7845 297.969L129.47 301.157L106.559 281.833L90.7845 297.969Z" fill="#C4B1A3"/>
<path d="M182.514 335.418L224.396 353.835L284.196 295.74L240.877 299.453L217.781 323.05L182.514 335.418Z" fill="#C5BAB6"/>
<path d="M182.513 335.418L150.031 353.835L90.7842 297.969L129.469 301.157L150.964 323.056L182.513 335.418Z" fill="#C5BAB6"/>
<path d="M224.396 353.835L184.057 371.867L150.028 353.835L182.513 335.418L224.396 353.835Z" fill="#CCBEB3"/>
<path d="M150.032 353.835C143.184 336.274 136.335 318.713 129.487 301.152L150.982 323.05L182.516 335.418L150.032 353.835Z" fill="#C4B1A3"/>
<path d="M224.396 353.835L182.514 335.418L217.782 323.05L240.877 299.453L224.396 353.835Z" fill="#C4B1A3"/>
<path d="M378.995 276.406L371.477 332.27L391.384 324.49L378.995 276.406Z" fill="#1D1D1B"/>
<path d="M228.925 521.596L304.572 479.657L328.406 397.649L304.369 451.359L228.925 521.596Z" fill="#1D1D1B"/>
<path d="M170.159 532.028L114.917 509.755L95.3368 444.875L120.445 489.611L170.159 532.028Z" fill="#1D1D1B"/>
<path d="M106.574 281.827C84.6566 264.917 62.7433 248.009 40.8339 231.103L37.741 152.387L53.8747 219.007L106.574 281.827Z" fill="#1D1D1B"/>
<path d="M722.591 850.231L766.454 867.283L734.424 900.79L722.591 850.231Z" fill="#945F2D"/>
<path d="M696.59 1003.76L652.09 1007.57L654.32 986.702L696.59 1003.76Z" fill="#BA7345"/>
<path d="M654.32 986.705L577.999 957.83L621.83 954.697L654.32 986.705Z" fill="#A36F3D"/>
<path d="M654.32 986.705L606.681 986.351L577.999 957.83L654.32 986.705Z" fill="#BA7345"/>
<path d="M606.681 986.352L652.09 1007.57L654.32 986.705L606.681 986.352Z" fill="#945F2D"/>
<path d="M720.358 813.13L766.454 867.283L722.591 850.231L720.358 813.13Z" fill="#1D1D1B"/>
<path d="M667.758 940.235L707.662 904.325L734.424 900.789L709.186 927.192L667.758 940.235Z" fill="#99887E"/>
<path d="M707.662 904.326L722.591 850.231L734.424 900.79L707.662 904.326Z" fill="#655852"/>
<path d="M150.031 353.835L75.1689 300.894C63.7238 277.628 52.2767 254.362 40.8278 231.094L90.7843 297.969L150.031 353.835Z" fill="#1D1D1B"/>
<path d="M224.396 353.835L284.196 295.74L323.582 220.636L301.236 298.259L224.396 353.835Z" fill="#1D1D1B"/>
<path d="M92.0295 312.818L93.8308 332.325L94.717 441.568C90.6819 419.581 86.6487 397.596 82.6174 375.612C85.7605 354.682 88.8979 333.751 92.0295 312.818Z" fill="#C79560"/>
</g>
<defs>
<clipPath id="clip0">
<rect width="786" height="1021" fill="white" transform="matrix(-1 0 0 1 786 0)"/>
</clipPath>
</defs>
</svg>
