<?xml version="1.0" encoding="utf-8"?><svg xmlns="http://www.w3.org/2000/svg" xmlns:xlink="http://www.w3.org/1999/xlink"><symbol viewBox="0 0 344.96 344.96" id="check" xmlns="http://www.w3.org/2000/svg"><g data-name="Слой 2"><path d="M321.85 86.24l-40-23.11-23.1-40H212.5L172.48 0l-40 23.11H86.24l-23.11 40-40 23.1v46.21L0 172.48l23.11 40v46.21l40 23.11 23.11 40h46.21l40 23.1 40-23.11h46.21l23.11-40 40-23.11V212.5l23.11-40-23.11-40V86.24zM156.91 243.07a16.79 16.79 0 01-23.34 0l-50.45-50.44a16.19 16.19 0 010-22.89l13.35-13.35a16.19 16.19 0 0122.89 0l25.87 25.87 80.34-80.35a16.19 16.19 0 0122.89 0l13.35 13.35a16.19 16.19 0 010 22.89z" data-name="Capa 1"/></g></symbol><symbol viewBox="0 0 46 46" id="download" xmlns="http://www.w3.org/2000/svg"><path d="M28.032 31.728h-3.329V20.844a.36.36 0 00-.36-.36H21.65a.36.36 0 00-.36.36v10.884h-3.32a.358.358 0 00-.283.58l5.032 6.365a.36.36 0 00.566 0l5.031-6.365a.358.358 0 00-.283-.58z"/><path d="M36.45 16.473c-2.058-5.427-7.3-9.285-13.441-9.285-6.14 0-11.383 3.854-13.44 9.28-3.85 1.011-6.694 4.52-6.694 8.688 0 4.964 4.02 8.985 8.98 8.985h1.801a.36.36 0 00.36-.36v-2.695a.36.36 0 00-.36-.36h-1.801a5.538 5.538 0 01-3.998-1.693 5.568 5.568 0 01-1.568-4.07c.04-1.186.445-2.3 1.177-3.239a5.63 5.63 0 012.97-1.963l1.702-.445.624-1.644a11.035 11.035 0 013.958-5.09 10.877 10.877 0 016.289-1.985c2.268 0 4.443.687 6.289 1.986a11.04 11.04 0 013.958 5.09l.62 1.639 1.698.45a5.596 5.596 0 014.137 5.394 5.54 5.54 0 01-1.63 3.94 5.529 5.529 0 01-3.936 1.63h-1.801a.36.36 0 00-.36.36v2.695c0 .198.162.36.36.36h1.801c4.96 0 8.98-4.02 8.98-8.985a8.985 8.985 0 00-6.675-8.683z"/></symbol></svg>