<svg width="46" height="46" viewBox="0 0 46 46" fill="none" xmlns="http://www.w3.org/2000/svg">
<path d="M28.032 31.7283H24.7033V20.8438C24.7033 20.6461 24.5415 20.4844 24.3439 20.4844H21.6486C21.4509 20.4844 21.2892 20.6461 21.2892 20.8438V31.7283H17.9695C17.6685 31.7283 17.5023 32.0742 17.6865 32.3078L22.7177 38.6732C22.7513 38.7162 22.7943 38.7509 22.8433 38.7748C22.8924 38.7987 22.9462 38.8111 23.0007 38.8111C23.0553 38.8111 23.1091 38.7987 23.1581 38.7748C23.2072 38.7509 23.2501 38.7162 23.2837 38.6732L28.315 32.3078C28.4992 32.0742 28.3329 31.7283 28.032 31.7283Z" fill="#C9DF55"/>
<path d="M36.4496 16.4729C34.3922 11.0463 29.1498 7.1875 23.009 7.1875C16.8682 7.1875 11.6258 11.0418 9.56836 16.4684C5.71855 17.4791 2.875 20.9875 2.875 25.1562C2.875 30.1201 6.89551 34.1406 11.8549 34.1406H13.6562C13.8539 34.1406 14.0156 33.9789 14.0156 33.7812V31.0859C14.0156 30.8883 13.8539 30.7266 13.6562 30.7266H11.8549C10.341 30.7266 8.91699 30.1246 7.85684 29.033C6.80117 27.9459 6.23965 26.4814 6.28906 24.9631C6.32949 23.7771 6.73379 22.6631 7.46602 21.7242C8.21621 20.7674 9.26738 20.0711 10.4354 19.7611L12.1379 19.3164L12.7623 17.6723C13.1486 16.648 13.6877 15.6912 14.366 14.8242C15.0357 13.9649 15.8289 13.2095 16.7199 12.5826C18.5662 11.2844 20.7404 10.5971 23.009 10.5971C25.2775 10.5971 27.4518 11.2844 29.298 12.5826C30.192 13.2115 30.9826 13.9662 31.652 14.8242C32.3303 15.6912 32.8693 16.6525 33.2557 17.6723L33.8756 19.3119L35.5736 19.7611C38.0084 20.417 39.7109 22.6316 39.7109 25.1562C39.7109 26.6432 39.1314 28.0447 38.0803 29.0959C37.5648 29.6144 36.9515 30.0255 36.276 30.3054C35.6006 30.5853 34.8763 30.7285 34.1451 30.7266H32.3438C32.1461 30.7266 31.9844 30.8883 31.9844 31.0859V33.7812C31.9844 33.9789 32.1461 34.1406 32.3438 34.1406H34.1451C39.1045 34.1406 43.125 30.1201 43.125 25.1562C43.125 20.992 40.2904 17.4881 36.4496 16.4729Z" fill="#C9DF55"/>
</svg>
